<svg width="16" height="17" viewBox="0 0 16 17" fill="none" xmlns="http://www.w3.org/2000/svg">
<path d="M8.00007 0.865234C3.58233 0.865234 0 4.4469 0 8.8653C0 12.3999 2.29226 15.3987 5.47093 16.4565C5.87075 16.5306 6.01754 16.283 6.01754 16.0717C6.01754 15.8809 6.01012 15.2507 6.00667 14.5822C3.78105 15.0662 3.31141 13.6383 3.31141 13.6383C2.9475 12.7136 2.42315 12.4678 2.42315 12.4678C1.6973 11.9712 2.47786 11.9814 2.47786 11.9814C3.28121 12.0379 3.70421 12.8059 3.70421 12.8059C4.41774 14.0289 5.57572 13.6753 6.03224 13.4709C6.10404 12.9538 6.31137 12.6009 6.54016 12.4011C4.76324 12.1988 2.8953 11.5129 2.8953 8.44747C2.8953 7.57404 3.20782 6.86038 3.71958 6.30013C3.63651 6.09864 3.36268 5.28496 3.79708 4.18301C3.79708 4.18301 4.46887 3.968 5.99766 5.00304C6.63581 4.82579 7.32019 4.7369 8.00007 4.73385C8.67994 4.7369 9.36485 4.82579 10.0042 5.00304C11.5311 3.968 12.202 4.18301 12.202 4.18301C12.6375 5.28496 12.3635 6.09864 12.2804 6.30013C12.7934 6.86038 13.1038 7.57404 13.1038 8.44747C13.1038 11.5202 11.2323 12.1967 9.45083 12.3948C9.73778 12.643 9.99346 13.1299 9.99346 13.8763C9.99346 14.9467 9.98419 15.8082 9.98419 16.0717C9.98419 16.2846 10.1282 16.534 10.5337 16.4555C13.7107 15.3965 16 12.3987 16 8.8653C16 4.4469 12.4182 0.865234 8.00007 0.865234ZM2.99628 12.2615C2.97867 12.3012 2.91614 12.3132 2.85917 12.2859C2.80115 12.2598 2.76856 12.2056 2.78737 12.1657C2.80459 12.1248 2.86725 12.1134 2.92514 12.1408C2.9833 12.1669 3.01642 12.2216 2.99628 12.2615ZM3.3898 12.6126C3.35165 12.648 3.27706 12.6316 3.22645 12.5757C3.17413 12.5199 3.16432 12.4453 3.20301 12.4094C3.24235 12.374 3.31468 12.3906 3.36715 12.4464C3.41947 12.5028 3.42968 12.5769 3.3898 12.6126ZM3.65977 13.0619C3.61075 13.0959 3.5306 13.064 3.48105 12.9929C3.43204 12.9217 3.43204 12.8364 3.48211 12.8022C3.53179 12.768 3.61075 12.7988 3.66096 12.8694C3.70984 12.9417 3.70984 13.027 3.65977 13.0619ZM4.11633 13.5822C4.07248 13.6305 3.97909 13.6176 3.91073 13.5516C3.84078 13.4871 3.82131 13.3955 3.86529 13.3472C3.90967 13.2987 4.0036 13.3123 4.07248 13.3778C4.1419 13.4422 4.1631 13.5344 4.11633 13.5822ZM4.70641 13.7578C4.68707 13.8205 4.59711 13.849 4.5065 13.8223C4.41602 13.7949 4.3568 13.7215 4.37508 13.6582C4.39389 13.5951 4.48424 13.5655 4.57552 13.594C4.66587 13.6212 4.72522 13.6941 4.70641 13.7578ZM5.37793 13.8323C5.38019 13.8983 5.30335 13.953 5.20823 13.9542C5.11258 13.9563 5.03521 13.9029 5.03415 13.838C5.03415 13.7714 5.10927 13.7172 5.20492 13.7156C5.30004 13.7138 5.37793 13.7668 5.37793 13.8323ZM6.03763 13.807C6.04903 13.8714 5.98292 13.9375 5.88846 13.9552C5.7956 13.9721 5.70962 13.9324 5.69783 13.8685C5.6863 13.8025 5.7536 13.7364 5.84634 13.7193C5.94093 13.7029 6.02558 13.7416 6.03763 13.807Z" fill="#24CAFF"/>
</svg>
