<svg width="174" height="178" viewBox="0 0 174 178" fill="none" xmlns="http://www.w3.org/2000/svg">
<ellipse cx="91.49" cy="78.3624" rx="4.14148" ry="4.24144" transform="rotate(-44.95 91.49 78.3624)" fill="#CCDDE2"/>
<ellipse cx="79.5758" cy="76.914" rx="4.14344" ry="4.2434" transform="rotate(-44.95 79.5758 76.914)" fill="#CCDDE2"/>
<path d="M84 64L82 65.5L80 67L79 73.5L78 82L80 91L83.5 96C83.3333 97 82.9 99.1 82.5 99.5C82.1 99.9 81.3333 110.667 81 116L96.5 123L103.5 112.5V105.5L101.5 94.5L103.5 85L108 82V77.5L105.5 76H97L92 73L88 67L84 64Z" fill="#D9D9D9"/>
<path d="M139.5 144.5L135 130.5L128 130L116.5 132.5L113.5 140.5L116 147L116.5 155H121.5H129.5L133.5 157.5L134 162.5L132 167L126 168L124.5 172.5L127 177L136 177.5L139.5 167.5V153.5V144.5Z" fill="#D9D9D9"/>
<path d="M59 107.5L57.5 104.5L48 105L35.5 107L37.5 88.5L40 78.5L43.5 73.5L48 64.5L49 56.5L48 49.5L46 46H43.5L41.5 50L42.5 54L41 56.5L38.5 57L35.5 55.5L34.5 52.5L35.5 47.5L38.5 44L37.5 41.5L34.5 40L30.5 42L28.5 45.5L26 51H24.5L21.5 53.5L22.5 56.5L20 57L18.5 60L19 63.5L18 65.5L20 69.5V76L7.5 119.5H60L62 117L59 107.5Z" fill="#D9D9D9"/>
<path d="M48.4742 51.5641C48.4742 51.5641 66.8982 20.8881 103.727 32.8931C140.496 44.9001 131.808 90.4799 131.784 90.5995C131.945 89.7645 138.315 88.9687 138.989 88.8707C157.78 86.0934 171.756 103.571 173.142 120.795C174.863 142.159 158.338 157.29 139.518 163.805" stroke="#CCDDE2" stroke-width="1.1"/>
<path fill-rule="evenodd" clip-rule="evenodd" d="M135.608 131.101C138.321 137.782 139.859 145.475 140.094 153.131C140.147 146.161 139.15 138.461 135.996 131.179C134.992 128.866 133.781 126.648 132.378 124.552C132.372 124.537 132.362 124.523 132.348 124.513C128.021 118.045 121.476 112.302 111.81 108.204L103.736 105.852C103.736 105.852 105.014 108.718 103.233 112.426C101.451 116.134 97.0626 120.723 92.3997 119.641C87.7369 118.559 82.6115 116.075 83.3837 111.04C84.156 106.005 84.4892 104.215 84.4892 104.215L56.9139 104.484C59.8696 108.461 63.9601 117.6 55.6968 132.373L60.83 132.177C60.83 132.177 57.4039 164.413 65.1714 176.914C65.2263 177.014 65.2871 177.11 65.3478 177.196L109.203 177.014H112.251C112.263 176.981 112.273 176.948 112.28 176.914H101.676C100.467 176.913 99.3073 176.431 98.4542 175.573C97.9325 175.052 97.5457 174.412 97.3272 173.707C97.1918 173.268 97.1256 172.81 97.1312 172.351C97.1355 169.831 99.1746 167.789 101.694 167.78H127.927C128.056 167.78 128.193 167.78 128.319 167.796C128.341 167.8 128.365 167.8 128.387 167.796H128.426C128.396 167.802 128.365 167.806 128.335 167.811C128.281 167.819 128.227 167.827 128.174 167.841H128.16C128.287 167.844 128.414 167.838 128.54 167.825C128.748 167.812 128.955 167.788 129.16 167.753C129.275 167.735 129.389 167.714 129.503 167.688L129.622 167.667C129.724 167.645 129.825 167.616 129.927 167.587C129.947 167.581 129.967 167.576 129.988 167.57C130.011 167.564 130.034 167.557 130.057 167.551C130.2 167.506 130.337 167.453 130.475 167.4C130.612 167.347 130.749 167.292 130.886 167.224C130.9 167.223 130.914 167.218 130.925 167.21C131.047 167.149 131.169 167.086 131.282 167.026C131.526 166.89 131.761 166.737 131.984 166.569L132.18 166.41C132.354 166.273 132.519 166.125 132.674 165.967C132.819 165.823 132.957 165.67 133.085 165.511L133.106 165.485L133.106 165.485C133.229 165.333 133.35 165.182 133.46 165.015C133.558 164.87 133.656 164.719 133.734 164.566C133.787 164.474 133.84 164.37 133.885 164.276L133.893 164.265C133.906 164.249 133.916 164.234 133.916 164.215C133.956 164.139 133.991 164.06 134.022 163.98C134.117 163.771 134.199 163.557 134.267 163.339C134.328 163.143 134.381 162.935 134.426 162.729C134.45 162.623 134.471 162.516 134.487 162.41C134.518 162.214 134.54 162.018 134.555 161.808C134.555 161.747 134.559 161.685 134.563 161.622C134.567 161.559 134.571 161.496 134.571 161.436C134.572 160.782 134.475 160.132 134.281 159.507C134.255 159.406 134.223 159.307 134.183 159.211C134.151 159.109 134.113 159.01 134.067 158.913C133.741 158.153 133.276 157.461 132.695 156.873C132.625 156.798 132.552 156.726 132.474 156.659C132.25 156.448 132.008 156.256 131.751 156.087C131.718 156.066 131.685 156.045 131.653 156.023C131.601 155.988 131.548 155.953 131.492 155.92C130.784 155.478 129.994 155.183 129.169 155.052C128.849 154.997 128.526 154.969 128.201 154.968L124.118 154.944L118.146 154.915H117.968C117.792 154.899 117.617 154.891 117.433 154.891H116.535C116.596 149.109 115.555 144.736 114.142 141.485L114.142 141.485C114.165 141.439 120.949 128.098 135.608 131.101ZM136.131 176.906C136.131 176.906 136.535 175.787 137.092 173.829C136.717 174.882 136.3 175.908 135.841 176.906H136.131ZM127.927 176.906C128.101 176.906 128.273 176.9 128.446 176.885C128.424 176.887 128.403 176.889 128.383 176.89C128.245 176.902 128.192 176.906 128.758 176.906H127.927Z" fill="#353642"/>
<path d="M85.824 96.5479C85.824 96.5479 85.1615 100.57 84.4755 104.212C82.5155 104.233 80.5555 104.249 78.6171 104.264C77.6371 98.749 78.7014 94.4292 79.9656 91.5499C81.559 95.1838 83.9659 96.2892 85.824 96.5479Z" fill="#3FBDF1"/>
<path d="M118.039 111.06C114.053 108.914 109.805 107.296 105.402 106.248L103.96 105.999C103.96 105.999 102.886 103.557 102.88 103.549C102.376 102.269 101.541 100.57 101.282 99.2214C100.967 97.6285 100.891 95.9976 101.055 94.3822C101.337 91.9831 102.455 86.9087 104.473 85.3093C106.157 83.9844 106.851 84.2627 107.805 82.191C108.491 80.7131 108.77 78.2298 107.437 77.1401C105.959 75.9445 105.328 76.5521 103.56 76.7363C96.8411 77.4027 93.0015 72.5674 90.5319 66.9794C90.1399 66.0719 89.7322 65.1135 89.0913 64.3413C88.3563 63.4514 87.339 63.2515 86.506 62.5322C86.1513 62.2225 85.9082 61.7168 86.0787 61.2778C86.1793 61.068 86.3252 60.8832 86.506 60.7368C88.0803 59.2866 89.9706 58.223 92.0273 57.6302C95.2805 56.6896 98.7179 56.5824 102.023 57.3186C105.473 58.4613 108.574 60.6251 110.661 63.9316C113.54 68.5004 114.234 73.2397 112.621 77.9633C110.969 82.8005 109.124 88.4826 112.229 93.1376C116.363 99.3214 118.854 103.671 118.039 111.06Z" fill="#3FBDF1"/>
<path d="M84.4833 104.212C82.5233 104.233 80.5633 104.249 78.6249 104.264C63.8543 104.341 49.7169 104.135 34.8993 106.793" stroke="black" stroke-width="1.1"/>
<path d="M103.727 105.856C104.289 105.979 104.846 106.109 105.402 106.248C107.572 106.772 109.709 107.427 111.8 108.208C113.945 109.006 116.03 109.959 118.039 111.058C118.043 111.054 118.05 111.054 118.054 111.058C121.214 112.77 124.134 114.89 126.739 117.365C128.917 119.488 130.801 121.893 132.339 124.517C132.352 124.527 132.362 124.541 132.368 124.556C133.616 126.651 134.699 128.839 135.608 131.101C138.321 137.782 139.859 145.475 140.094 153.131C140.308 160.362 139.356 167.561 137.102 173.829C136.726 174.882 136.31 175.908 135.851 176.906C135.822 176.982 135.782 177.051 135.753 177.127" stroke="black" stroke-width="1.1"/>
<path d="M112.243 177.029C112.243 177.029 112.243 177.014 112.243 177.006C112.255 176.974 112.265 176.94 112.272 176.906" stroke="black" stroke-width="1.1"/>
<path d="M107.07 132.953C107.07 132.953 111.335 135.025 114.138 141.493C115.547 144.744 116.592 149.117 116.531 154.899V154.915C116.5 158.602 116.014 162.859 114.885 167.765V167.792" stroke="black" stroke-width="1.1"/>
<path d="M26.3556 50.8407C27.1083 47.9929 28.3156 45.0568 29.2231 43.822C30.65 41.9012 32.512 40.0705 34.9071 40.2352C36.4457 40.3351 37.9569 41.1858 38.0255 42.8714C38.0901 44.7001 36.1615 46.7306 35.5421 48.4495C34.9541 50.1077 34.6856 52.0383 34.9953 53.7827C35.305 55.5271 36.871 56.8893 38.5605 57.2637C39.2014 57.4324 39.883 57.34 40.4559 57.0069C42.1101 55.9603 41.7632 53.1731 41.6965 51.5287C41.6181 49.6843 41.6201 47.5989 43.194 46.3367C44.3504 45.4096 46.1046 46.025 46.9572 47.0442C48.4389 48.8082 48.5115 51.464 48.5859 53.6357C48.8074 60.1782 47.6451 66.4502 43.8349 71.9578C41.8749 74.8017 39.8561 77.3537 39.0623 80.8425C36.5927 91.6852 36.3183 99.2018 34.8993 110.213" stroke="black" stroke-width="1.1"/>
<path d="M64.8167 177.2C57.2432 155.675 60.83 132.159 60.83 132.159L20.1483 133.449C16.6439 133.56 13.263 132.148 10.8775 129.579C8.49205 127.009 7.33553 123.533 7.7062 120.046L17.6708 83.708L19.8268 75.9562C20.5143 73.517 20.3569 70.9171 19.38 68.5787L18.3647 66.1562C18.3647 66.1562 16.5242 62.4028 20.65 62.7556C22.8688 62.9516 25.0698 63.8943 26.9318 65.0782C28.394 66.0092 30.6245 67.8104 29.9346 69.8077C29.1192 72.1597 25.9224 72.7477 24.0448 71.4247" stroke="black" stroke-width="1.1"/>
<path d="M19.2781 62.736C19.2781 62.736 15.7932 54.896 25.3541 56.9246C34.915 58.9532 37.2042 69.4 29.9072 68.224" stroke="black" stroke-width="1.1"/>
<path d="M22.4297 56.4757C22.4297 56.4757 19.3721 52.7615 23.9429 50.9877C28.5136 49.2139 45.1109 57.591 34.4641 65.8426" stroke="black" stroke-width="1.1"/>
<path d="M88.568 96.3715C87.6806 96.615 86.7529 96.675 85.8416 96.5479C83.9757 96.2892 81.5688 95.1759 79.9832 91.5499C79.6538 90.8089 79.3863 90.0419 79.1835 89.2567C78.376 86.2559 78.0232 82.0811 78.4955 76.2599C78.5877 75.1408 78.7249 74.004 78.915 72.8691C79.2296 70.895 79.7371 68.9564 80.4301 67.0813C80.4301 67.0813 80.4301 67.0656 80.4457 67.0577C82.1745 62.487 85.2144 58.6297 90.3261 57.146C94.1595 56.0402 98.2351 56.0989 102.035 57.3146C105.485 58.4573 108.585 60.6211 110.673 63.9276C113.552 68.4964 114.246 73.2357 112.633 77.9593C110.981 82.7965 109.136 88.4786 112.241 93.1336C116.369 99.3272 118.86 103.676 118.06 111.066" stroke="black" stroke-width="1.1"/>
<path d="M77.0569 104.494C75.5555 97.2947 77.5822 92.0458 79.1737 89.2567" stroke="black" stroke-width="1.1"/>
<path d="M78.915 72.8614C78.915 72.8614 82.2019 69.4255 86.0102 74.8528" stroke="black" stroke-width="1.1"/>
<path fill-rule="evenodd" clip-rule="evenodd" d="M87.2841 90.1623C88.6738 91.0619 90.5554 90.5033 91.5785 89.1176C92.6898 87.6143 93.1347 85.6072 93.3758 83.7864C93.3915 83.6551 93.4091 83.5257 93.4209 83.3944C91.7255 86.058 88.4347 86.697 85.5378 86.9753C85.6476 87.8464 85.9715 88.6767 86.4805 89.392C86.6984 89.6963 86.9709 89.9575 87.2841 90.1623V90.1623Z" stroke="black" stroke-width="1.1" stroke-linecap="round" stroke-linejoin="round"/>
<path d="M102.378 102.154L102.37 102.146" stroke="black" stroke-width="1.1"/>
<path d="M89.448 71.8049C89.448 71.8049 90.5652 69.9958 94.3833 71.3286C98.2014 72.6614 98.2464 74.839 98.2464 74.839" stroke="black" stroke-width="1.1"/>
<path d="M80.7692 76.3031C80.7692 76.3031 82.5332 75.4113 83.915 76.3031" stroke="black" stroke-width="1.1"/>
<path d="M90.2751 77.1244C90.2751 77.1244 92.0391 76.2326 93.4111 77.1244" stroke="black" stroke-width="1.1"/>
<path d="M85.824 96.5479C85.824 96.5479 85.1615 100.57 84.4755 104.212C84.3756 104.729 84.2795 105.239 84.1933 105.742C83.7444 108.194 83.3858 110.374 83.3701 111.034C83.2564 116.522 88.4445 119.688 93.4562 119.635C100.489 119.558 104.601 113.016 103.938 106.464C103.505 105.268 103.062 104.072 102.629 102.877C102.072 101.344 101.349 99.8525 101.036 98.2375C100.759 96.6464 100.728 95.0221 100.945 93.4217C101.228 91.0305 101.692 87.4653 103.711 85.8659C105.395 84.541 107.153 83.6707 108.113 81.599C108.799 80.1212 108.768 78.218 107.435 77.1283C105.957 75.9327 103.619 76.0777 101.851 76.2521C90.4476 77.4183 88.5504 65.8759 85.4653 64.255C82.9369 62.9202 81.0396 65.9151 80.4458 67.0264L80.4222 67.0735C80.4213 67.0846 80.4164 67.095 80.4085 67.1029C80.3007 67.2989 80.2478 67.4302 80.2478 67.4302" stroke="black" stroke-width="1.1"/>
<path d="M85.5319 77.632C85.5319 77.632 84.3403 81.5324 84.4324 82.1164C84.5245 82.7005 85.9141 82.2928 85.9141 82.2928" stroke="black" stroke-width="1.1"/>
<ellipse cx="91.49" cy="78.3623" rx="4.67068" ry="4.78436" transform="rotate(-44.95 91.49 78.3623)" stroke="black" stroke-width="1.1"/>
<ellipse cx="79.5759" cy="76.914" rx="4.67068" ry="4.78436" transform="rotate(-44.95 79.5759 76.914)" stroke="black" stroke-width="1.1"/>
<path fill-rule="evenodd" clip-rule="evenodd" d="M75.436 76.405C75.6325 74.3245 77.3819 72.7365 79.4716 72.7417H79.4775C79.6478 72.7425 79.818 72.7529 79.9871 72.7731C82.2826 73.0566 83.9388 75.1109 83.7287 77.4144C83.532 79.4971 81.7792 81.0858 79.6872 81.0776C79.5169 81.0768 79.3468 81.0664 79.1776 81.0462C76.8821 80.7627 75.226 78.7084 75.436 76.405ZM82.2387 74.4957C81.5292 73.7186 80.524 73.2779 79.4716 73.2827C77.6581 73.2756 76.1385 74.6525 75.9672 76.4579C75.8669 77.5055 76.2145 78.5465 76.9241 79.3237C77.6336 80.1008 78.6388 80.5415 79.6912 80.5367C81.5046 80.5438 83.0243 79.1669 83.1956 77.3615C83.2959 76.3139 82.9483 75.2729 82.2387 74.4957Z" fill="white"/>
<path d="M86.7825 77.7868L84.2815 77.483" stroke="black" stroke-width="1.1"/>
<path fill-rule="evenodd" clip-rule="evenodd" d="M30.5187 22.3208C30.9714 16.6525 35.6754 12.0974 41.3594 11.8074H41.3614C45.9798 11.5679 50.2913 14.1217 52.3007 18.287C54.3102 22.4522 53.6255 27.4163 50.5636 30.8821C50.5389 30.9086 50.516 30.9368 50.495 30.9664C49.6694 31.8759 48.7057 32.6498 47.6393 33.2596C47.372 33.4062 47.1238 33.5852 46.9004 33.7927C43.7849 35.3532 40.1148 35.3474 37.0043 33.777C36.7696 33.5766 36.517 33.3982 36.2497 33.2439C35.2253 32.6586 34.2993 31.9158 33.5057 31.0428C31.3295 28.6838 30.2455 25.5186 30.5187 22.3208ZM48.4213 29.8236C48.4346 29.7999 48.4526 29.7792 48.4742 29.7629L48.4723 29.7668C50.9496 26.962 51.3948 22.9021 49.5843 19.6271C47.7737 16.352 44.0988 14.5699 40.4061 15.176C36.7133 15.7822 33.801 18.6457 33.1325 22.3277C32.464 26.0096 34.1837 29.7141 37.4277 31.5798C37.6354 31.7024 37.8321 31.8427 38.0157 31.9992C40.4177 33.2015 43.2459 33.2015 45.6479 31.9992C45.8176 31.8384 46.0074 31.7 46.2124 31.5876C47.0362 31.1184 47.7815 30.5232 48.4213 29.8236Z" fill="#3FBDF1"/>
<path d="M46.8964 33.7947C45.9841 34.6227 45.4656 35.7987 45.4695 37.0307V37.556C45.4695 39.3905 44.1407 41.035 42.3335 41.2192C41.346 41.3205 40.3617 40.9996 39.6236 40.3358C38.8854 39.6719 38.4623 38.727 38.4586 37.7343V37.0307C38.4565 35.7919 37.9312 34.6117 37.0121 33.781C40.1225 35.3467 43.7896 35.3518 46.9043 33.7947H46.8964Z" fill="#353642"/>
<path fill-rule="evenodd" clip-rule="evenodd" d="M46.8964 33.7946C45.9841 34.6226 45.4656 35.7985 45.4695 37.0306V37.5558C45.4695 39.3904 44.1407 41.0348 42.3335 41.2191C41.346 41.3204 40.3617 40.9995 39.6236 40.3356C38.8854 39.6718 38.4623 38.7269 38.4586 37.7342V37.0306C38.4565 35.7918 37.9312 34.6115 37.0121 33.7809C40.1225 35.3466 43.7896 35.3517 46.9043 33.7946H46.8964Z" stroke="black" stroke-width="1.1"/>
<path fill-rule="evenodd" clip-rule="evenodd" d="M53.4409 23.2753C53.4468 26.0798 52.4213 28.7886 50.5597 30.886C50.5364 30.9114 50.5148 30.9382 50.495 30.9664C49.6681 31.8775 48.7023 32.6521 47.6334 33.2615C47.3679 33.4101 47.1206 33.589 46.8964 33.7947C43.7817 35.3517 40.1147 35.3466 37.0043 33.7809C36.77 33.5774 36.5167 33.3969 36.2478 33.2419C32.3831 31.0203 30.1505 26.7653 30.5187 22.3228C31.0147 16.1768 36.2772 11.5204 42.4378 11.7764C48.5985 12.0324 53.4565 17.1094 53.4409 23.2753V23.2753Z" stroke="black" stroke-width="1.1"/>
<path d="M38.7154 34.9588L36.0851 26.2408L35.4265 23.7712C35.4264 23.6185 35.5289 23.4849 35.6764 23.4454C35.8238 23.4059 35.9794 23.4704 36.0557 23.6026C36.6437 24.6414 37.5727 25.9448 38.4978 25.9115C40.0325 25.8566 38.7722 21.1977 37.5178 21.6857C36.2634 22.1738 38.6684 25.2529 41.1458 25.6371C43.6232 26.0212 42.9451 21.8562 41.1458 21.6916C39.3465 21.527 40.5872 25.0354 43.8212 25.6371C47.0552 26.2388 46.4515 22.6775 45.5754 21.966C44.6993 21.2545 44.9717 25.3627 47.0023 26.0212C47.6452 26.231 48.1567 25.7821 48.4076 25.2235C48.5526 24.8982 48.4782 23.2518 48.1802 23.7594C47.5726 24.8002 47.4531 26.0996 47.1552 27.2482C46.5221 29.6786 45.5538 32.0051 44.9992 34.4571" stroke="black" stroke-width="1.1"/>
<path d="M21.4282 177.2C22.8158 176.549 150.788 177.2 150.788 177.2" stroke="black" stroke-width="1.1"/>
<path d="M41.9513 7.70513L41.8377 0.800049" stroke="black" stroke-width="1.468"/>
<path d="M28.7821 14.1281L24.0016 9.1438" stroke="black" stroke-width="1.468"/>
<path d="M55.1696 14.4378L60.0558 9.55737" stroke="black" stroke-width="1.468"/>
<path d="M128.423 167.78L128.589 167.796C128.499 167.812 128.393 167.827 128.301 167.849H128.16L114.889 167.78H113.389L91.0925 167.667C91.0082 167.667 90.9239 167.667 90.8396 167.667C90.8195 167.67 90.7989 167.67 90.7789 167.667C90.7789 167.667 90.7789 167.667 90.7651 167.667C90.6248 167.668 90.4845 167.658 90.3457 167.637C91.5382 167.502 92.6682 167.033 93.6052 166.283C93.7522 166.159 93.9031 166.042 94.0403 165.909L94.056 165.893C94.088 165.867 94.1181 165.839 94.1461 165.809C95.2793 164.688 95.9579 163.188 96.0513 161.597C96.0513 161.52 96.0513 161.436 96.0513 161.359V161.238C96.0372 158.176 93.8785 155.544 90.8788 154.931C90.8744 154.927 90.8676 154.927 90.8631 154.931C90.7181 154.893 90.5515 154.87 90.3986 154.846L90.7259 154.825C90.7794 154.821 90.8332 154.821 90.8867 154.825H91.1454L109.983 154.923L113.45 154.938L116.527 154.954H117.96H118.135H118.195C121.486 155.286 123.993 158.052 124.001 161.359C124.001 161.663 123.978 161.967 123.932 162.267C123.474 165.346 120.883 167.659 117.772 167.767C117.703 167.767 117.635 167.767 117.576 167.767H128.768C128.605 167.773 128.499 167.773 128.423 167.78Z" fill="white"/>
<path d="M98.4523 175.569C99.3072 176.429 100.47 176.912 101.682 176.91H90.7495C88.6562 176.91 87.5194 176.4 86.6903 175.569C85.8338 174.712 85.3518 173.551 85.3497 172.339C85.3497 169.834 87.4057 167.776 90.7495 167.776H101.682C99.8346 167.773 98.1674 168.885 97.4599 170.592C96.7524 172.299 97.1442 174.264 98.4523 175.569Z" fill="#D7E8F0"/>
<path d="M134.593 161.451C134.593 161.573 134.593 161.702 134.577 161.824C134.561 162.03 134.54 162.228 134.508 162.426C134.493 162.531 134.471 162.639 134.448 162.745C134.403 162.941 134.35 163.157 134.289 163.355C134.22 163.573 134.138 163.787 134.044 163.995C134.013 164.076 133.978 164.154 133.938 164.231C133.938 164.254 133.922 164.27 133.907 164.291C133.862 164.391 133.809 164.487 133.756 164.582C133.672 164.734 133.579 164.885 133.481 165.03C133.366 165.207 133.236 165.366 133.107 165.526C132.978 165.686 132.841 165.838 132.695 165.983C132.54 166.141 132.375 166.289 132.202 166.426L132.006 166.585C131.783 166.753 131.548 166.906 131.304 167.041C131.19 167.102 131.069 167.165 130.947 167.226C130.936 167.234 130.922 167.239 130.908 167.239C130.771 167.308 130.634 167.363 130.496 167.416C130.359 167.469 130.222 167.522 130.079 167.567C129.934 167.606 129.789 167.651 129.644 167.682C129.288 167.764 128.926 167.817 128.562 167.841C128.485 167.841 128.411 167.841 128.334 167.841H128.211C128.295 167.819 128.38 167.812 128.464 167.796C128.473 167.792 128.484 167.792 128.493 167.796C128.455 167.795 128.417 167.79 128.38 167.78C128.405 167.776 128.431 167.776 128.456 167.78H128.791H117.576H117.772C119.151 167.706 120.47 167.19 121.533 166.308C121.693 166.177 121.847 166.038 121.992 165.891C122.113 165.773 122.228 165.648 122.335 165.516C122.417 165.425 122.493 165.329 122.562 165.228C122.607 165.173 122.647 165.121 122.684 165.068C122.756 164.97 122.822 164.868 122.88 164.762C122.969 164.638 123.048 164.506 123.117 164.37C123.19 164.239 123.255 164.104 123.313 163.966C123.342 163.905 123.366 163.837 123.405 163.77C123.458 163.633 123.503 163.496 123.548 163.358C123.611 163.162 123.672 162.955 123.717 162.751C123.744 162.641 123.764 162.529 123.777 162.416C123.786 162.388 123.792 162.36 123.793 162.331C123.802 162.31 123.807 162.286 123.809 162.263C123.809 162.186 123.83 162.118 123.838 162.041C123.838 162.026 123.838 162.012 123.838 161.996C123.867 161.784 123.88 161.57 123.877 161.355C123.88 161.256 123.875 161.157 123.862 161.059V160.991C123.862 160.894 123.854 160.797 123.838 160.701C123.786 160.172 123.666 159.652 123.48 159.154C123.376 158.856 123.245 158.568 123.088 158.294C122.944 158.018 122.776 157.756 122.586 157.51C122.536 157.438 122.483 157.369 122.425 157.304C122.402 157.281 122.38 157.249 122.349 157.22C122.247 157.086 122.135 156.961 122.013 156.845C121.923 156.755 121.817 156.663 121.725 156.565C121.633 156.467 121.48 156.351 121.351 156.259C121.222 156.167 121.137 156.101 121.024 156.024C120.855 155.901 120.676 155.792 120.491 155.697C120.317 155.596 120.136 155.509 119.95 155.436C119.733 155.343 119.512 155.262 119.287 155.193C119.21 155.165 119.131 155.144 119.05 155.132C118.84 155.073 118.627 155.027 118.411 154.995C118.303 154.972 118.197 154.964 118.084 154.95H118.068C118.053 154.954 118.038 154.954 118.023 154.95H118.137L124.109 154.979L128.191 155.003C128.516 155.004 128.84 155.033 129.16 155.087C129.99 155.216 130.785 155.511 131.498 155.956C131.59 156.008 131.672 156.069 131.757 156.122C132.014 156.292 132.256 156.483 132.48 156.694C132.557 156.762 132.631 156.833 132.701 156.908C133.282 157.497 133.747 158.189 134.073 158.948C134.119 159.045 134.157 159.145 134.189 159.246C134.229 159.343 134.261 159.441 134.287 159.542C134.484 160.16 134.587 160.803 134.593 161.451Z" fill="#3FBDF1"/>
<path fill-rule="evenodd" clip-rule="evenodd" d="M134.593 161.451C134.593 161.573 134.593 161.702 134.577 161.824C134.561 162.03 134.54 162.228 134.508 162.426C134.493 162.531 134.471 162.639 134.448 162.745C134.403 162.941 134.35 163.157 134.289 163.355C134.22 163.573 134.138 163.787 134.044 163.996C134.014 164.077 133.976 164.156 133.93 164.231C133.93 164.254 133.915 164.27 133.899 164.291C133.854 164.391 133.801 164.487 133.748 164.582C133.664 164.734 133.572 164.885 133.474 165.03C133.358 165.207 133.229 165.366 133.099 165.526C132.968 165.686 132.828 165.838 132.68 165.983C132.525 166.141 132.36 166.289 132.186 166.426L131.99 166.585C131.767 166.753 131.532 166.906 131.288 167.041C131.174 167.102 131.053 167.165 130.931 167.226C130.92 167.234 130.906 167.239 130.892 167.239C130.755 167.308 130.618 167.363 130.481 167.416C130.343 167.469 130.206 167.522 130.063 167.567C129.918 167.606 129.773 167.651 129.628 167.682L129.508 167.704C129.395 167.729 129.281 167.751 129.165 167.769C128.96 167.804 128.754 167.828 128.546 167.841C128.42 167.854 128.293 167.859 128.166 167.857C128.166 167.857 128.142 167.857 128.135 167.857L114.885 167.792L111.763 167.776L90.9513 167.671C90.8747 167.669 90.7982 167.664 90.722 167.655C90.5476 167.655 90.379 167.639 90.2046 167.625C93.316 167.255 95.7172 164.712 95.9101 161.585C95.9101 161.508 95.9101 161.424 95.9101 161.34V161.257C95.9139 158.179 93.747 155.524 90.7299 154.911C90.577 154.88 90.4241 154.858 90.2653 154.834C90.417 154.817 90.5694 154.807 90.722 154.805C90.7755 154.801 90.8292 154.801 90.8827 154.805H91.0121L111.823 154.911L116.527 154.934H118.066H118.195L128.191 154.987C128.519 154.989 128.847 155.014 129.171 155.064C129.999 155.2 130.794 155.495 131.51 155.932C131.602 155.985 131.684 156.046 131.768 156.099C132.022 156.273 132.264 156.464 132.492 156.671C132.568 156.74 132.637 156.808 132.713 156.885C133.294 157.473 133.759 158.165 134.085 158.925L134.201 159.223C134.239 159.32 134.272 159.418 134.299 159.519C134.494 160.144 134.593 160.796 134.593 161.451V161.451Z" stroke="black" stroke-width="1.1" stroke-linecap="square" stroke-linejoin="round"/>
<path fill-rule="evenodd" clip-rule="evenodd" d="M123.868 161.336C123.869 161.55 123.858 161.764 123.836 161.977V162.022C123.821 162.122 123.807 162.218 123.791 162.312C123.79 162.34 123.784 162.369 123.776 162.396C123.762 162.509 123.742 162.621 123.715 162.731C123.67 162.927 123.609 163.141 123.546 163.339C123.501 163.476 123.456 163.613 123.403 163.75C123.364 163.819 123.34 163.888 123.311 163.946C123.254 164.085 123.188 164.22 123.115 164.35C123.046 164.487 122.967 164.618 122.878 164.742C122.82 164.849 122.754 164.951 122.682 165.048C122.645 165.101 122.605 165.154 122.56 165.209C122.491 165.31 122.415 165.406 122.333 165.497C122.226 165.628 122.111 165.753 121.99 165.871C121.844 166.015 121.691 166.152 121.531 166.281C120.471 167.167 119.152 167.688 117.772 167.767C117.703 167.767 117.635 167.767 117.576 167.767H90.9808C90.7378 167.767 90.4869 167.753 90.234 167.729C90.3981 167.71 90.561 167.682 90.7221 167.645C90.7348 167.649 90.7486 167.649 90.7613 167.645H90.775C92.0108 167.387 93.1443 166.774 94.0364 165.881L94.0521 165.865C95.1866 164.719 95.8496 163.189 95.9102 161.577C95.9102 161.5 95.9102 161.416 95.9102 161.332V161.324C95.8849 158.074 93.4521 155.348 90.2262 154.954C90.3948 154.932 90.5614 154.925 90.7299 154.917C90.7727 154.909 90.8165 154.909 90.8593 154.917C90.8637 154.913 90.8705 154.913 90.875 154.917C90.9075 154.913 90.9404 154.913 90.973 154.917H117.429C117.613 154.917 117.788 154.917 117.964 154.94H118.025C118.04 154.944 118.055 154.944 118.07 154.94H118.101L118.413 154.985C118.629 155.017 118.842 155.063 119.052 155.123C119.128 155.138 119.213 155.16 119.289 155.183C119.514 155.253 119.735 155.334 119.952 155.426C120.134 155.503 120.318 155.595 120.493 155.687C120.677 155.785 120.855 155.894 121.026 156.014C121.139 156.091 121.247 156.165 121.353 156.25C121.459 156.334 121.604 156.446 121.727 156.555C121.851 156.665 121.923 156.751 122.015 156.836C122.131 156.959 122.245 157.081 122.351 157.21C122.382 157.239 122.404 157.271 122.427 157.294L122.588 157.5C122.771 157.751 122.939 158.012 123.09 158.284C123.238 158.563 123.368 158.85 123.482 159.144C123.661 159.644 123.782 160.163 123.84 160.691C123.84 160.791 123.856 160.887 123.864 160.981V161.05C123.868 161.138 123.868 161.238 123.868 161.336V161.336Z" stroke="black" stroke-width="1.1" stroke-linecap="square" stroke-linejoin="round"/>
<path fill-rule="evenodd" clip-rule="evenodd" d="M128.758 176.906H90.7456C89.8984 176.929 89.0535 176.808 88.2466 176.549C88.0859 176.489 87.935 176.428 87.7899 176.353C87.6449 176.277 87.5155 176.2 87.3862 176.124C87.2568 176.048 87.1431 175.95 87.0275 175.857C86.9138 175.757 86.808 175.661 86.708 175.559C86.1863 175.038 85.7995 174.398 85.581 173.694C85.4423 173.255 85.3728 172.797 85.3752 172.337C85.3737 172.159 85.3842 171.981 85.4066 171.804C85.4355 171.556 85.4886 171.311 85.5653 171.073C85.6714 170.697 85.8361 170.34 86.0534 170.015C86.1774 169.802 86.3254 169.605 86.4944 169.427C86.5982 169.311 86.7081 169.201 86.8236 169.097C87.7527 168.268 89.1012 167.757 90.7691 167.757H128.758C128.605 167.757 128.499 167.757 128.423 167.757C128.397 167.753 128.372 167.753 128.346 167.757C128.27 167.757 128.285 167.757 128.323 167.757C128.327 167.761 128.334 167.761 128.338 167.757C128.356 167.76 128.374 167.76 128.391 167.757H128.431C128.346 167.772 128.262 167.78 128.178 167.802H128.16C128.16 167.802 128.137 167.802 128.129 167.802C125.987 168.228 124.442 170.104 124.434 172.288C124.447 174.599 126.171 176.542 128.464 176.83C128.278 176.9 128.103 176.906 128.758 176.906V176.906Z" stroke="black" stroke-width="1.1" stroke-linecap="square" stroke-linejoin="round"/>
<path fill-rule="evenodd" clip-rule="evenodd" d="M128.452 176.884C128.278 176.9 128.103 176.906 127.927 176.906H101.676C100.467 176.905 99.3074 176.423 98.4542 175.565C97.9326 175.044 97.5458 174.404 97.3272 173.699C97.1918 173.26 97.1257 172.803 97.1312 172.343C97.1355 169.824 99.1746 167.781 101.694 167.772H127.927C128.056 167.772 128.193 167.772 128.319 167.788C128.341 167.792 128.365 167.792 128.387 167.788H128.427C128.342 167.804 128.258 167.812 128.174 167.833H128.16C128.16 167.833 128.136 167.833 128.129 167.833C125.987 168.259 124.441 170.136 124.434 172.32C124.447 174.63 126.171 176.574 128.464 176.861L128.452 176.884Z" stroke="black" stroke-width="1.1" stroke-linecap="square" stroke-linejoin="round"/>
<path fill-rule="evenodd" clip-rule="evenodd" d="M97.1136 172.343C97.1136 174.863 99.1565 176.906 101.676 176.906H90.7456C88.6582 176.906 87.5155 176.396 86.6844 175.565C85.8291 174.711 85.3494 173.552 85.3516 172.343C85.3516 169.83 87.4018 167.772 90.7456 167.772H101.676C99.157 167.781 97.1179 169.824 97.1136 172.343V172.343Z" stroke="black" stroke-width="1.1" stroke-linecap="square" stroke-linejoin="round"/>
<path fill-rule="evenodd" clip-rule="evenodd" d="M128.758 176.906H127.927C128.103 176.906 128.278 176.906 128.452 176.884C128.278 176.9 128.103 176.906 128.758 176.906V176.906Z" stroke="black" stroke-width="1.1" stroke-linecap="square" stroke-linejoin="round"/>
<path fill-rule="evenodd" clip-rule="evenodd" d="M128.391 167.792C128.24 167.792 128.08 167.768 127.927 167.768H128.758C128.178 167.772 128.246 167.792 128.391 167.792Z" stroke="black" stroke-width="1.1" stroke-linecap="square" stroke-linejoin="round"/>
<path opacity="0.54" d="M14.48 159.713L0.873682 124.856C0.532105 123.49 0.839085 122.042 1.70586 120.932C2.57264 119.822 3.90257 119.173 5.31112 119.172H59.364C61.8618 119.172 64.0344 120.883 64.6188 123.312L79.5148 158.165C79.842 159.527 79.5266 160.965 78.6589 162.065C77.7912 163.166 76.467 163.808 75.0656 163.807H19.7191C17.2399 163.807 15.0793 162.119 14.48 159.713Z" fill="white"/>
<path d="M14.48 159.713L0.873682 124.856C0.532105 123.49 0.839085 122.042 1.70586 120.932C2.57264 119.822 3.90257 119.173 5.31112 119.172H59.364C61.8618 119.172 64.0344 120.883 64.6188 123.312L79.5148 158.165C79.842 159.527 79.5266 160.965 78.6589 162.065C77.7912 163.166 76.467 163.808 75.0656 163.807H19.7191C17.2399 163.807 15.0793 162.119 14.48 159.713Z" fill="#3FBDF1"/>
<path fill-rule="evenodd" clip-rule="evenodd" d="M14.48 159.713L0.873681 124.856C0.532105 123.49 0.839085 122.042 1.70586 120.932C2.57264 119.822 3.90257 119.173 5.31112 119.172H59.364C61.8618 119.172 64.0344 120.883 64.6188 123.312L79.5148 158.165C79.842 159.527 79.5266 160.965 78.6589 162.065C77.7912 163.166 76.467 163.808 75.0656 163.807H19.7191C17.2399 163.807 15.0793 162.119 14.48 159.713Z" stroke="black" stroke-width="1.1" stroke-linecap="square" stroke-linejoin="round"/>
<path d="M16.4674 158.302L3.92343 126.144C3.60791 124.884 3.89021 123.549 4.68876 122.525C5.4873 121.5 6.71312 120.901 8.01199 120.899H57.8705C60.1747 120.899 62.1786 122.479 62.7175 124.719L76.4591 156.863C76.7611 158.12 76.4702 159.447 75.6698 160.462C74.8695 161.478 73.6479 162.071 72.3549 162.071H21.3047C19.019 162.072 17.0254 160.518 16.4674 158.302Z" fill="#3FBDF1"/>
<path d="M54.268 126.812C53.6075 125.819 52.5275 125.378 51.8533 125.832C51.179 126.287 51.1692 127.449 51.8298 128.443C51.9338 128.594 52.0506 128.737 52.1786 128.868L47.2786 139.211C46.4946 138.69 45.6381 138.561 45.0227 138.972C44.6204 139.265 44.3684 139.72 44.3347 140.217L40.987 139.086L38.0608 138.106L37.1043 137.792C36.9844 137.433 36.8177 137.091 36.6084 136.775C35.6794 135.379 34.1623 134.76 33.2156 135.389C32.269 136.018 32.2592 137.628 33.1627 139.013L27.5944 146.624C26.3792 145.626 24.9464 145.319 23.9546 145.977C22.6062 146.877 22.5826 149.219 23.9096 151.21C23.9625 151.289 24.0232 151.355 24.0781 151.43L20.36 156.51L20.3267 156.559C20.0413 156.944 19.9915 157.455 20.1972 157.887C20.4029 158.32 20.8305 158.604 21.3091 158.625C21.7877 158.647 22.239 158.402 22.4827 157.99L25.7892 153.014C26.8319 153.619 27.9452 153.735 28.7547 153.194C30.0444 152.335 30.1051 150.164 28.9507 148.235L34.2917 140.174C35.0757 140.709 35.9498 140.846 36.5731 140.432C36.9216 140.187 37.159 139.813 37.2336 139.394L37.6256 139.505L40.6029 140.319L44.4131 141.346C44.5289 141.802 44.7211 142.235 44.9815 142.628C45.9086 144.021 47.4276 144.642 48.3743 144.013C49.321 143.384 49.3327 141.744 48.4056 140.35C48.2688 140.148 48.1154 139.957 47.947 139.78L52.6098 129.237C53.1724 129.629 53.7858 129.717 54.2386 129.421C54.9226 128.984 54.9324 127.808 54.268 126.812Z" fill="white"/>
<path d="M18.792 127.383H11.5694C10.8904 127.385 10.2745 126.985 10.0014 126.363C9.9602 126.27 9.9382 126.17 9.93671 126.068C9.941 125.658 10.2738 125.328 10.6835 125.327H18.3647C18.008 125.936 18.204 126.783 18.792 127.383Z" fill="#D7E8F0"/>
<path d="M23.4686 126.642C23.4664 127.051 23.1348 127.382 22.7257 127.383H18.792C18.1922 126.783 18.008 125.936 18.3706 125.327H21.8398C22.5174 125.323 23.1329 125.721 23.4078 126.34C23.4483 126.435 23.469 126.538 23.4686 126.642Z" fill="#3FBDF1"/>
<path d="M21.6614 127.383C21.6403 127.422 21.6168 127.46 21.5909 127.496C21.0734 128.2 19.9562 128.267 19.0879 127.632C18.984 127.557 18.8863 127.474 18.7959 127.383C18.1961 126.783 18.0119 125.936 18.3745 125.327C18.3942 125.287 18.4178 125.248 18.4451 125.213C18.9566 124.505 20.0738 124.445 20.9421 125.074C21.0476 125.15 21.1466 125.234 21.2381 125.327C21.8339 125.928 22.0181 126.767 21.6614 127.383Z" fill="white"/>
<path d="M25.2855 131.177C25.2822 131.587 24.9489 131.918 24.5387 131.918H16.9555C17.322 131.303 17.1397 130.464 16.538 129.862H23.6606C24.3396 129.859 24.9555 130.26 25.2286 130.881C25.2671 130.975 25.2865 131.076 25.2855 131.177Z" fill="#3FBDF1"/>
<path d="M16.9555 131.924H13.3883C12.7107 131.928 12.0952 131.53 11.8203 130.911C11.7792 130.816 11.7572 130.714 11.7556 130.611C11.7545 130.414 11.8322 130.225 11.9713 130.085C12.1104 129.946 12.2995 129.868 12.4965 129.868H16.538C17.1397 130.464 17.322 131.303 16.9555 131.924Z" fill="#D7E8F0"/>
<path d="M16.9555 131.924C16.9392 131.965 16.9174 132.003 16.8908 132.038C16.3792 132.747 15.2601 132.808 14.3918 132.179C14.2844 132.102 14.1829 132.016 14.088 131.924C13.5 131.324 13.304 130.483 13.6666 129.868C13.6858 129.828 13.7095 129.791 13.7372 129.756C14.2526 129.051 15.3698 128.986 16.2401 129.619C16.3429 129.695 16.4399 129.778 16.5302 129.868C17.1397 130.464 17.322 131.303 16.9555 131.924Z" fill="white"/>
<path d="M19.4819 136.432H14.9426C14.265 136.434 13.6501 136.036 13.3746 135.417C13.3334 135.323 13.3114 135.223 13.3099 135.121C13.311 134.709 13.6447 134.375 14.0566 134.374H19.0507C18.7018 134.98 18.8861 135.821 19.4819 136.432Z" fill="#3FBDF1"/>
<path d="M26.8397 135.685C26.8376 136.094 26.5053 136.423 26.0969 136.422H19.4819C18.8939 135.82 18.6979 134.98 19.0585 134.364H25.2149C25.8908 134.364 26.5026 134.764 26.7731 135.383C26.8156 135.478 26.8383 135.581 26.8397 135.685Z" fill="#D7E8F0"/>
<path d="M22.3455 136.432C22.3262 136.472 22.3025 136.509 22.2749 136.544C21.7633 137.253 20.6461 137.314 19.7779 136.685C19.6737 136.607 19.5748 136.523 19.4819 136.432C18.8939 135.83 18.6979 134.989 19.0585 134.374C19.0792 134.335 19.1028 134.298 19.1291 134.262C19.6465 133.559 20.7637 133.496 21.632 134.125C21.7351 134.201 21.8326 134.284 21.9241 134.374C22.516 134.966 22.712 135.811 22.3455 136.432Z" fill="white"/>
<path d="M48.8329 157.667H44.2916C43.614 157.669 42.9991 157.27 42.7236 156.651C42.6809 156.558 42.6582 156.458 42.657 156.355C42.658 155.943 42.9917 155.61 43.4037 155.609H48.3998C48.0528 156.228 48.2371 157.065 48.8329 157.667Z" fill="#3FBDF1"/>
<path d="M66.8551 156.93C66.8546 157.126 66.7762 157.313 66.6373 157.452C66.4984 157.59 66.3102 157.667 66.1142 157.667H48.8329C48.2449 157.065 48.0489 156.224 48.4096 155.609H65.2303C65.9061 155.608 66.518 156.008 66.7885 156.628C66.831 156.723 66.8537 156.826 66.8551 156.93Z" fill="#D7E8F0"/>
<path d="M51.6965 157.667C51.6772 157.706 51.6536 157.744 51.6259 157.778C51.1144 158.488 49.9972 158.549 49.1289 157.919C49.0243 157.842 48.9254 157.758 48.8329 157.667C48.2449 157.065 48.0489 156.224 48.4096 155.609C48.4302 155.57 48.4538 155.532 48.4801 155.497C48.9976 154.793 50.1148 154.731 50.983 155.36C51.0861 155.436 51.1837 155.519 51.2751 155.609C51.8748 156.21 52.0591 157.055 51.6965 157.667Z" fill="white"/>
</svg>
