<svg width="187" height="153" viewBox="0 0 187 153" fill="none" xmlns="http://www.w3.org/2000/svg">
<path d="M100.38 6.56445C100.38 6.56445 126.105 -7.68103 139.5 10.3244C152.896 28.3299 132.865 42.3922 150.463 52.9868C168.061 63.5813 154.47 83.9123 170.426 90.6667C186.382 97.421 181.644 126.606 162.943 133.339" stroke="#CCDDE2" stroke-width="1.0794"/>
<path d="M26.9462 112.671C26.8968 112.877 26.8557 113.066 26.8207 113.27C26.7363 113.694 26.6581 114.124 26.6026 114.56C25.3678 123.663 29.3644 132.792 34.9621 139.779" stroke="#CCDDE2" stroke-width="1.0794"/>
<rect x="20.8155" y="8.44543" width="112.933" height="108.352" rx="17.7177" fill="#3FBDF1"/>
<rect x="19.167" y="6.86279" width="114.583" height="109.934" rx="18.8937" stroke="black" stroke-width="1.0794"/>
<rect x="23.036" y="10.5754" width="108.492" height="104.09" rx="17.7177" fill="#3FBDF1"/>
<path fill-rule="evenodd" clip-rule="evenodd" d="M95.9942 16.0394H118.71C121.806 16.0394 124.316 18.7354 124.316 22.055V82.7392C124.316 86.0649 121.797 88.763 118.71 88.763H95.9942C92.9072 88.763 90.3985 86.0649 90.3985 82.7392V22.055C90.3985 18.7354 92.9072 16.0394 95.9942 16.0394ZM117.004 86.0649C119.585 86.0649 121.672 83.8237 121.672 81.0495L121.668 23.7589C121.668 20.9868 119.581 18.7436 117 18.7436H97.7044C95.1237 18.7436 93.0369 20.9868 93.0369 23.7589V81.0495C93.0369 83.8237 95.1237 86.0649 97.7044 86.0649H117.004Z" fill="#D7E8F0"/>
<path d="M67.5032 92.6422L34.211 92.1627C33.465 92.1503 32.8701 91.536 32.8815 90.79C32.8814 90.6666 32.8994 90.5439 32.935 90.4258C33.1101 89.8466 33.6471 89.453 34.2521 89.4606L67.5444 89.9504C67.2917 90.3355 67.1494 90.7825 67.1328 91.2428C67.1194 91.7351 67.248 92.221 67.5032 92.6422Z" fill="#3FBDF1"/>
<path d="M75.5727 91.7697C75.3983 92.3493 74.8629 92.7448 74.2576 92.741L71.8539 92.7061C72.3786 91.886 72.3946 90.8396 71.895 90.0039L74.2988 90.0389C75.0446 90.0524 75.6395 90.6657 75.6303 91.4116C75.6288 91.5331 75.6094 91.6538 75.5727 91.7697Z" fill="#D7E8F0"/>
<path d="M75.4945 97.1308C75.321 97.7094 74.7854 98.1031 74.1815 98.096L41.095 97.6124C41.4623 97.1778 41.6713 96.6315 41.6877 96.0627C41.7035 95.6686 41.6252 95.2763 41.4593 94.9185L74.2185 95.3918C74.9635 95.4064 75.5572 96.0194 75.548 96.7645C75.5481 96.8885 75.5301 97.012 75.4945 97.1308Z" fill="#D7E8F0"/>
<path d="M37.1169 97.5528L34.1348 97.5137C33.39 97.5035 32.7942 96.892 32.8033 96.1472C32.8039 96.0217 32.8226 95.8969 32.8589 95.7767C33.03 95.198 33.5664 94.8048 34.1698 94.8157L36.8267 94.8589C36.6735 95.1813 36.5867 95.5312 36.5715 95.8879C36.5486 96.4902 36.7421 97.0808 37.1169 97.5528Z" fill="#3FBDF1"/>
<path d="M65.1468 103.383L34.2563 102.934C33.5127 102.916 32.921 102.305 32.9268 101.562C32.9283 101.44 32.9477 101.319 32.9844 101.204C33.1582 100.624 33.694 100.228 34.2995 100.232L65.1427 100.687C64.6278 101.512 64.6278 102.558 65.1427 103.383H65.1468Z" fill="#3FBDF1"/>
<path d="M75.6241 102.554C75.4505 103.134 74.911 103.528 74.3049 103.517L69.4625 103.443L65.1407 103.383C64.6258 102.558 64.6258 101.512 65.1407 100.687L69.5365 100.753L74.344 100.821C75.0876 100.833 75.6815 101.444 75.6735 102.187C75.676 102.311 75.6593 102.435 75.6241 102.554Z" fill="#D7E8F0"/>
<path d="M71.8539 92.706C71.2327 93.6797 70.0362 94.1164 68.9339 93.7717C67.8316 93.4271 67.097 92.3866 67.1411 91.2325C67.1641 90.5535 67.4563 89.9116 67.9532 89.4483C68.45 88.9851 69.1108 88.7384 69.7897 88.7629C70.469 88.7849 71.1116 89.0767 71.5751 89.5738C72.0386 90.071 72.2849 90.7323 72.2593 91.4115C72.242 91.8715 72.102 92.3184 71.8539 92.706Z" fill="white"/>
<path opacity="0.72" d="M70.8887 91.1338C70.8325 91.4418 70.6897 91.7273 70.4771 91.957C70.3741 92.0738 70.2604 92.1806 70.1375 92.276C70.0716 92.3234 69.7259 92.6053 69.6518 92.5703C69.1908 92.3378 68.6063 91.7471 68.5343 91.177C68.523 91.0875 68.523 90.997 68.5343 90.9075C68.5877 90.5844 68.8717 90.3505 69.199 90.36C69.4064 90.3698 69.5973 90.4755 69.7156 90.6461C69.9007 90.415 70.2167 90.3347 70.4896 90.4494C70.7626 90.5641 70.9263 90.846 70.8907 91.14L70.8887 91.1338Z" fill="white"/>
<path d="M41.095 97.6125C40.6 98.2051 39.8638 98.5427 39.0917 98.5311C38.3196 98.5195 37.5939 98.16 37.1169 97.5528C36.7407 97.0791 36.5471 96.4861 36.5715 95.8817C36.5867 95.525 36.6735 95.1751 36.8267 94.8527C37.2697 93.9426 38.2065 93.3782 39.2181 93.4121C40.1916 93.4415 41.0621 94.0263 41.4572 94.9165C41.6231 95.2744 41.7014 95.6666 41.6856 96.0607C41.6703 96.63 41.462 97.1771 41.095 97.6125Z" fill="white"/>
<path opacity="0.72" d="M40.3212 95.787C40.265 96.0949 40.1223 96.3805 39.9096 96.6102C39.807 96.728 39.6925 96.8349 39.568 96.9292C39.5021 96.9765 39.1564 97.2605 39.0843 97.2235C38.6213 96.9909 38.0389 96.4003 37.9668 95.8302C37.9555 95.7407 37.9555 95.6501 37.9668 95.5606C38.0211 95.238 38.3045 95.0045 38.6316 95.0132C38.8389 95.0229 39.0298 95.1287 39.1481 95.2992C39.3334 95.0676 39.6501 94.9872 39.9234 95.1026C40.1967 95.2179 40.36 95.5009 40.3232 95.7952L40.3212 95.787Z" fill="white"/>
<path d="M69.4625 103.443C68.8303 104.4 67.6395 104.82 66.5465 104.473C65.4534 104.126 64.7239 103.095 64.7599 101.949C64.7771 101.502 64.9089 101.068 65.1427 100.687C65.6193 99.9245 66.4601 99.4667 67.3593 99.4801C68.2584 99.4936 69.0851 99.9764 69.5386 100.753C69.7835 101.17 69.9035 101.649 69.8844 102.132C69.8664 102.599 69.7205 103.053 69.4625 103.443Z" fill="white"/>
<path opacity="0.72" d="M68.5137 101.854C68.4584 102.162 68.3155 102.448 68.1021 102.677C67.999 102.794 67.8846 102.901 67.7605 102.996C67.6947 103.046 67.3489 103.327 67.2769 103.29C66.8138 103.058 66.2314 102.467 66.1594 101.897C66.1471 101.808 66.1471 101.717 66.1594 101.628C66.201 101.364 66.3999 101.153 66.6605 101.095C66.9211 101.038 67.1903 101.146 67.3386 101.368C67.5246 101.138 67.84 101.059 68.1126 101.173C68.3852 101.288 68.5495 101.568 68.5158 101.862L68.5137 101.854Z" fill="white"/>
<path d="M32.6263 22.4213L32.6839 30.3137C32.7135 33.1728 34.9937 35.4992 37.8516 35.5863L45.672 35.7221C47.0272 35.7395 48.3318 35.2081 49.2892 34.2488C50.2466 33.2894 50.7754 31.9837 50.7552 30.6286L50.6956 22.7382C50.6704 19.8759 48.389 17.5446 45.5279 17.4574L37.7075 17.3195C36.3512 17.3026 35.0458 17.8354 34.0886 18.7964C33.1315 19.7575 32.604 21.065 32.6263 22.4213Z" fill="white"/>
<path d="M33.8282 24.4011L33.8694 30.1141C33.8958 32.5981 35.8769 34.6192 38.3599 34.6952L45.1513 34.8125C46.3295 34.8299 47.4645 34.3695 48.2977 33.5363C49.131 32.7031 49.5913 31.5681 49.574 30.3899V30.003C48.6211 28.054 46.7648 25.1378 44.785 26.881C41.9305 29.3897 40.6237 27.4798 38.9608 25.0185C37.5593 22.9584 35.4478 21.454 33.8282 24.4011Z" fill="#3FBDF1"/>
<ellipse cx="45.5298" cy="22.0129" rx="1.87278" ry="1.92217" transform="rotate(-33.6 45.5298 22.0129)" fill="#3FBDF1"/>
<path d="M75.9699 33.0426C73.4675 33.0402 71.2348 34.6139 70.3958 36.9715C69.5568 39.329 70.2933 41.9594 72.2346 43.5384L58.7876 67.6582C58.6922 67.6433 58.596 67.6336 58.4995 67.6294C58.2526 67.633 58.0074 67.6711 57.771 67.7425L47.695 55.2299C48.6069 53.9589 48.6602 52.2629 47.83 50.9371C46.9999 49.6113 45.4508 48.9187 43.9092 49.1841C42.3676 49.4495 41.1392 50.6201 40.8001 52.1472C40.461 53.6743 41.0784 55.2548 42.3627 56.1478L35.3058 76.2338C34.033 76.3083 32.9895 77.2706 32.8125 78.5334C32.6356 79.7961 33.3743 81.0082 34.5776 81.4297C35.781 81.8512 37.1146 81.3649 37.7642 80.2677C38.4138 79.1706 38.1989 77.7675 37.2507 76.915L44.3096 56.829C44.396 56.829 44.4804 56.8413 44.5668 56.8413C45.0927 56.8415 45.613 56.7344 46.0959 56.5264L56.1637 69.037C55.7172 69.8587 55.7375 70.8551 56.217 71.6579C56.6966 72.4608 57.5643 72.9509 58.4995 72.9472C59.5187 72.9524 60.4506 72.3728 60.8966 71.4563C61.3425 70.5399 61.2235 69.4489 60.5904 68.6501L74.0374 44.5386C76.2564 45.3067 78.7196 44.6884 80.3128 42.9635C81.906 41.2385 82.327 38.734 81.3853 36.583C80.4437 34.4319 78.318 33.0422 75.9699 33.0426Z" fill="white"/>
<path d="M167.207 100.625C167.193 100.562 167.178 100.5 167.158 100.436C166.493 98.0579 165.124 95.9365 163.231 94.3505C163.208 94.3381 163.182 94.3155 163.159 94.3011C162.984 94.1756 162.801 94.0541 162.618 93.9348C162.371 93.7804 162.116 93.6323 161.863 93.4841C161.841 93.4692 161.817 93.4574 161.793 93.4491C160.813 92.9926 159.88 92.4412 159.008 91.8027L158.965 91.7739C157.788 90.9918 156.724 90.0822 155.989 88.8206C155.972 88.794 155.959 88.7657 155.948 88.7363C155.933 88.7363 155.933 88.7136 155.927 88.7075C155.25 87.6785 154.841 86.5507 154.925 85.3797V85.3447C154.719 83.4349 154.925 81.4242 154.847 79.4856C154.847 79.3662 154.847 79.2468 154.826 79.1254C154.806 79.004 154.806 78.8579 154.797 78.7385C154.805 78.6991 154.805 78.6586 154.797 78.6191C154.769 78.236 154.72 77.8546 154.649 77.477C153.98 73.8528 151.653 70.6238 148.805 68.3477C148.74 68.2927 148.671 68.2432 148.599 68.1995C145.405 65.8575 141.908 64.9478 139.618 64.5959C139.596 64.5929 139.575 64.5929 139.554 64.5959C138.694 64.5321 137.877 64.5465 137.121 64.3757C137.107 64.3757 137.092 64.3757 137.086 64.3757C136.241 64.2119 135.487 63.7395 134.971 63.0504C134.775 62.7997 134.601 62.5333 134.45 62.2539C134.429 62.2381 134.414 62.2157 134.407 62.1901C133.814 61.2671 133.422 60.2291 133.258 59.1443C133.238 59.0393 133.209 58.9385 133.195 58.8335C132.701 56.4874 132.686 53.9355 132.674 51.826C132.483 48.5765 131.038 44.3884 128.527 41.4064C128.527 41.4064 128.527 41.392 128.513 41.392C127.785 40.6638 126.965 40.0335 126.074 39.5171C123.821 38.2556 121.235 37.7168 118.665 37.9736C118.665 37.9736 118.665 37.9736 118.651 37.9736C118.647 37.9724 118.642 37.9724 118.638 37.9736C117.058 38.1072 115.527 38.5886 114.154 39.3834C113.649 39.6732 113.172 40.008 112.728 40.3836C110.052 42.6803 108.519 46.2694 108.095 49.8092C108.06 50.0829 108.04 50.3525 108.025 50.6324C108.018 50.6649 108.018 50.6986 108.025 50.7312C107.691 51.186 107.494 51.7263 107.455 52.2891C107.378 53.5666 108.087 54.7621 109.246 55.3061V55.3617V55.9194C109.287 57.1715 109.56 58.4052 110.05 59.5579C110.874 61.5028 112.341 63.7233 114.829 64.0753C115.271 64.1384 115.716 64.1789 116.163 64.1967L117.34 69.2305L118.348 73.5935C122.746 71.091 128.19 70.3357 132.834 71.7969H132.849C135.023 72.4557 136.999 73.6477 138.595 75.2646C143.756 79.4732 149.566 99.5037 149.914 100.745C149.915 100.759 149.92 100.774 149.928 100.786C149.928 100.786 149.928 100.786 149.928 100.8C149.928 100.815 149.928 100.821 149.943 100.835C149.958 100.894 149.979 100.95 150.006 101.004C150.027 101.068 150.05 101.132 150.076 101.195L150.225 101.576C151.254 104.233 154.575 112.895 155.314 115.033C156.197 117.559 156.886 117.756 156.886 117.756C156.924 117.747 156.96 117.733 156.993 117.713L157.133 117.657C159.362 116.754 161.429 115.495 163.254 113.928C163.268 113.928 163.268 113.928 163.268 113.914C164.957 112.197 166.182 110.079 166.829 107.758C167.541 105.448 167.671 102.998 167.207 100.625Z" fill="white"/>
<path d="M110.343 48.9921C110.343 48.9921 110.88 39.9945 119.283 37.8789C127.685 35.7633 132.694 45.5305 133.071 51.793C133.448 58.0555 133.071 62.3794 137.488 64.3468C137.488 64.3468 150.247 64.1925 154.944 75.919C154.944 75.919 155.579 81.6608 155.32 85.3569C155.061 89.0531 159.673 92.2945 162.186 93.4367C164.698 94.5788 169.068 99.2196 167.88 106.799C166.693 114.379 157.281 117.75 157.281 117.75C157.281 117.75 156.588 117.544 155.707 115.023C154.826 112.502 150.317 100.806 150.317 100.806C150.317 100.806 144.31 79.609 138.978 75.2707C136.043 72.8793 132.896 71.7968 130.824 70.5373C128.64 69.2099 127.591 67.7466 126.862 66.8082C125.44 64.9786 122.919 62.2147 124.742 55.695C126.566 49.1753 124.728 52.4619 123.012 51.544C123.012 51.544 120.884 48.2512 117.673 50.5809C114.463 52.9105 115.245 47.2387 115.245 47.2387L113.835 49.1361C113.835 49.1361 111.625 49.5745 110.343 48.9921H110.343Z" fill="#3FBDF1"/>
<path d="M25.8679 152.051H19.2946C18.2862 152.051 17.251 152.051 16.3208 151.639C15.3906 151.227 14.6744 150.491 13.9932 149.758C9.24333 144.745 6.14192 141.094 1.39 136.066L2.98289 134.42C4.79048 132.897 7.45397 132.977 9.16718 134.605L15.8989 141.217L25.8679 152.051Z" fill="#3FBDF1"/>
<path d="M118.772 125.41C115.503 126.116 112.217 126.789 108.916 127.427C105.024 128.181 101.13 128.919 97.2352 129.641L93.6028 125.198L87.6346 131.388C76.9248 133.309 66.1944 135.109 55.4434 136.788L55.4928 136.739L83.5989 108.378C87.5153 104.422 93.3181 102.995 98.6223 104.684L109.692 108.215C111.522 114.503 114.611 120.353 118.772 125.41Z" fill="white"/>
<path d="M150 99.5L167.5 144.5L171.5 148L181 147.5L182 151L179.5 152H162L158.531 146.969L156.5 149L150 152H24.5L16.5 142.5L21 141.5L122.5 125L126.5 120L141.399 122.128L132 108.5L134.5 100L144 97.5L150 99.5Z" fill="#D9D9D9"/>
<path d="M110.555 86.2501C109.165 91.0597 108.84 96.1779 109.412 101.288C109.55 102.598 109.755 103.902 110.03 105.198C110.283 106.495 110.608 107.771 110.974 109.047C112.636 114.752 115.297 120.117 118.834 124.893C118.694 124.922 118.56 124.957 118.439 124.984C114.448 120.024 111.477 114.326 109.694 108.215C109.34 106.98 109.032 105.746 108.785 104.511C108.538 103.276 108.332 102.002 108.192 100.74C107.642 95.8116 107.959 90.8765 109.299 86.2439C110.284 82.831 112.056 79.6969 114.473 77.0941C115.076 76.4396 115.731 75.8353 116.432 75.2871L116.467 75.2604L116.58 75.176L116.63 75.1328C117.291 74.6301 117.986 74.1736 118.71 73.7663C120.292 72.8652 121.994 72.193 123.765 71.77C122.569 72.1748 121.415 72.6923 120.318 73.3156C119.566 73.7399 118.845 74.2158 118.159 74.7397L118.109 74.7809L117.996 74.8653H117.984L117.949 74.892C117.222 75.4586 116.543 76.0836 115.918 76.7607C113.414 79.462 111.577 82.7118 110.555 86.2501Z" fill="#2E2E2E"/>
<path d="M133.022 109.516C133.022 109.516 138.747 116.791 143.518 125.478C137.821 123.173 126.272 124.037 121.641 124.519C121.026 124.548 120.414 124.617 119.807 124.724C119.769 124.725 119.731 124.73 119.694 124.739C119.68 124.74 119.667 124.74 119.653 124.739C119.357 124.796 119.081 124.846 118.83 124.901C115.293 120.126 112.632 114.76 110.97 109.055C110.604 107.779 110.279 106.503 110.026 105.206C109.773 103.91 109.552 102.603 109.408 101.296C108.836 96.1862 109.161 91.0679 110.55 86.2584C111.576 82.7193 113.415 79.4695 115.922 76.7689C116.547 76.0919 117.226 75.4669 117.953 74.9003L117.988 74.8735H118L118.114 74.7891L118.163 74.748C118.849 74.224 119.57 73.7482 120.322 73.3238C121.419 72.7006 122.574 72.183 123.769 71.7783C126.914 71.0168 130.219 71.0395 133.201 71.9841H133.215C134.971 72.8526 137.016 73.8671 138.961 75.4539C141.704 78.2589 143.155 82.0395 144.538 85.7192C146.448 90.7956 148.363 95.8665 150.284 100.932C150.285 100.947 150.29 100.962 150.299 100.975C150.299 100.975 150.299 100.975 150.299 100.99C150.299 101.004 150.299 101.01 150.313 101.025C150.328 101.083 150.349 101.14 150.377 101.193C150.397 101.258 150.42 101.322 150.447 101.385C137.745 98.7298 133.022 109.516 133.022 109.516Z" fill="#2E2E2E"/>
<path d="M116.432 75.2873C115.731 75.8327 115.075 76.4343 114.471 77.0859C112.054 79.6888 110.282 82.8229 109.297 86.2358C107.957 90.8684 107.64 95.8035 108.19 100.732C108.027 100.823 107.859 100.901 107.69 100.985C104.15 102.712 100.238 103.982 96.2617 103.953C91.8492 103.905 87.6768 101.936 84.8337 98.5612C82.6131 95.931 81.2095 92.7514 80.1723 89.506C79.0795 86.0794 78.2481 82.6384 76.8939 79.3045C76.0275 77.1806 75.1611 74.7974 73.2924 73.3033C72.3334 72.5419 71.1336 72.2743 70.1828 71.5129C69.1728 70.7012 68.4412 69.5948 68.0898 68.3477C67.9345 67.8106 67.8352 67.2588 67.7934 66.7013C67.6164 64.5013 68.205 62.2025 68.9274 60.1651L65.2415 57.6831C64.2393 57.006 63.8009 55.5407 64.3936 54.4891C64.7372 53.881 65.3298 53.4538 66.0153 53.3202C66.6511 53.1991 67.3087 53.3442 67.8346 53.7215L75.4492 59.1916C75.4492 59.1916 76.0357 57.2962 77.8324 57.8807C79.5117 58.4302 85.4902 60.7783 85.2844 68.0266C85.2559 69.1312 85.5475 70.2204 86.124 71.163L93.2735 82.9924C94.298 84.6848 95.9909 85.8644 97.9333 86.2393C99.8758 86.6142 101.886 86.1494 103.467 84.9598L115.982 75.6268L116.432 75.2873Z" fill="white"/>
<path d="M118.774 78.6087L110.336 99.4768L108.165 100.491L104.547 102.177C107.445 90.3249 103.469 84.7992 103.469 84.7992L113.946 76.9788C114.1 77.0364 114.255 77.0858 114.417 77.1413C116.574 77.8534 118.774 78.6087 118.774 78.6087Z" fill="#2E2E2E"/>
<path d="M123.193 124.229C119.519 125.138 122.481 124.449 118.787 125.245" stroke="black" stroke-width="1.0794"/>
<path d="M158.967 123.737C158.572 122.693 158.177 121.65 157.79 120.606L157.747 120.499C153.356 108.837 148.96 97.1815 144.557 85.5319C143.174 81.8583 141.723 78.0716 138.98 75.2666C133.263 69.4301 123.174 69.9857 116.652 74.964L116.603 75.0052L116.56 75.034C115.818 75.6089 115.125 76.2443 114.487 76.9335C112.07 79.5371 110.298 82.6719 109.314 86.0855C107.628 91.9014 107.558 98.1968 108.799 104.352C109.044 105.599 109.355 106.832 109.707 108.057C111.537 114.345 114.627 120.195 118.789 125.251C115.516 125.955 112.231 126.627 108.933 127.268C91.1668 130.712 73.3418 133.828 55.4578 136.616C44.6986 138.301 33.2993 140.114 22.5113 141.555L18.3953 142.063C17.4823 142.178 16.5662 141.876 15.901 141.24L9.16718 134.615C7.45397 132.987 4.79048 132.907 2.98289 134.43L1.39 136.076C6.14192 141.104 9.24333 144.755 13.9953 149.783C14.6867 150.515 15.3988 151.262 16.3228 151.664C17.2469 152.065 18.2882 152.075 19.2967 152.075H25.1908C30.1752 152.075 35.1625 152.075 40.1524 152.075L141.186 152.096C145.324 152.096 149.603 152.069 153.398 150.412C155.229 149.603 156.876 148.43 158.24 146.965" stroke="black" stroke-width="1.0794"/>
<path d="M124.87 97.3983L160.084 149.696C161.082 151.176 162.749 152.064 164.534 152.065H179.868C181.118 152.065 182.132 151.051 182.132 149.801C182.132 148.551 181.118 147.537 179.868 147.537H172.636C170.247 147.538 168.096 146.088 167.201 143.872L157.386 119.621" stroke="black" stroke-width="1.0794"/>
<path d="M55.4557 136.616L55.5051 136.566L83.6133 108.215C87.5294 104.259 93.3305 102.829 98.6367 104.511L109.705 108.044" stroke="black" stroke-width="1.0794"/>
<path d="M159.064 123.772L158.965 123.737" stroke="black" stroke-width="1.0794"/>
<path d="M97.2908 129.524L93.6193 125.033L87.5873 131.277" stroke="black" stroke-width="1.0794"/>
<path d="M139.495 75.9297V75.9235" stroke="black" stroke-width="1.0794"/>
<path d="M163.849 147.996C164.772 147.962 165.697 147.991 166.617 148.085C167.368 148.161 168.152 148.206 168.862 148.556C169.452 148.848 170.068 149.55 170.037 150.408C169.981 152.083 168.226 152.071 167.265 152.071" stroke="black" stroke-width="1.0794"/>
<path d="M164.217 152.065H167.263H167.306H176.631" stroke="black" stroke-width="1.0794"/>
<path d="M108.2 100.57C108.2 100.57 108.18 100.57 108.171 100.584C108.017 100.668 107.861 100.745 107.7 100.823C106.673 101.328 105.621 101.78 104.547 102.177C101.897 103.171 99.0977 103.823 96.272 103.79C91.859 103.741 87.6862 101.773 84.8419 98.3985C82.6213 95.7683 81.2198 92.5887 80.1826 89.3433C79.0898 85.9167 78.2583 82.4757 76.9042 79.1418C76.0378 77.02 75.1693 74.6368 73.3027 73.1406C72.3437 72.3792 71.1438 72.1116 70.193 71.3502C69.1832 70.5381 68.451 69.4319 68.098 68.185C67.9444 67.6476 67.8458 67.0959 67.8037 66.5386C67.6267 64.3386 68.2153 62.0418 68.9377 60.0044L65.2497 57.5225C64.2495 56.8454 63.8091 55.3801 64.4039 54.3285C64.7474 53.7203 65.3401 53.2932 66.0256 53.1595C66.6614 53.0384 67.319 53.1835 67.8449 53.5608L75.4595 59.031C75.4595 59.031 76.046 57.1356 77.8426 57.72C79.5199 58.2695 85.4984 60.6177 85.2947 67.866C85.2661 68.9706 85.5577 70.0598 86.1343 71.0024L93.2818 82.8338C94.3067 84.5233 95.9982 85.7007 97.9384 86.0751C99.8787 86.4495 101.887 85.986 103.467 84.7992L113.944 76.9788L115.981 75.4641L116.475 75.0978L116.589 75.0134L116.638 74.9723" stroke="black" stroke-width="1.0794"/>
<path d="M75.478 59.0125C75.478 59.0125 74.2905 61.9039 78.386 63.8302" stroke="black" stroke-width="1.0794"/>
<path d="M68.2853 62.1797C68.2853 62.1797 67.8737 65.6783 72.5227 66.9851C74.1691 67.4482 75.5027 65.5445 74.5004 64.1615L74.4511 64.0977" stroke="black" stroke-width="1.0794"/>
<path d="M67.7934 66.4995C67.7934 66.4995 69.3452 69.5392 71.9094 69.2017C74.1732 68.9033 73.35 66.6909 73.35 66.6909" stroke="black" stroke-width="1.0794"/>
<path d="M68.9418 59.986L71.6439 61.8073" stroke="black" stroke-width="1.0794"/>
<path d="M156.769 117.927C161.976 116.305 165.658 113.056 167.226 107.76C168.728 102.685 167.751 96.9147 163.005 93.9389C160.64 92.4715 157.847 91.3252 156.38 88.8124C154.378 85.3755 155.728 81.1834 155.036 77.4646C154.318 73.6038 151.721 70.1834 148.607 67.8907C146.299 66.2002 143.616 65.0943 140.787 64.6679C138.698 64.353 136.796 64.8737 135.368 63.0215C133.104 60.0971 133.088 55.3184 133.069 51.7972C133.057 49.093 132.419 46.4011 131.028 44.0817L130.997 44.0303C129.893 42.1606 128.336 40.5993 126.469 39.4903C122.97 37.4653 118.062 37.278 114.533 39.3607C114.029 39.6616 113.552 40.0059 113.109 40.3897C109.847 43.1824 108.287 47.9014 108.363 52.1038" stroke="black" stroke-width="1.0794"/>
<ellipse cx="110.864" cy="52.5709" rx="3.05613" ry="3.13022" transform="rotate(-46.65 110.864 52.5709)" fill="#CCDDE2"/>
<ellipse cx="119.979" cy="53.4036" rx="3.07054" ry="3.14462" transform="rotate(-46.65 119.979 53.4036)" fill="#CCDDE2"/>
<path d="M114.992 46.967C114.81 48.2018 114.057 49.3461 112.728 49.6898C111.217 50.0726 110.417 51.542 109.993 53.0196C109.389 55.1863 109.545 57.4943 110.435 59.5599C111.258 61.5027 112.73 63.7253 115.216 64.0875C119.766 64.7358 122.028 62.8178 122.028 62.8178" stroke="black" stroke-width="1.0794"/>
<circle cx="118.782" cy="52.7974" r="0.78204" fill="black"/>
<circle cx="111.913" cy="52.2808" r="0.78204" fill="black"/>
<path d="M114.992 46.967C114.817 47.7103 114.843 48.4867 115.068 49.2164C115.103 49.3354 115.148 49.4511 115.204 49.5622C115.745 50.8381 117.006 51.8527 119.241 51.7272C124.106 51.4576 125.841 51.1407 125.446 53.3839C125.282 54.1721 125.045 54.9436 124.74 55.6888C124.205 57.1047 123.833 59.5455 124.382 62.1962V62.2106C125.016 65.3121 128.677 70.208 133.744 71.9697" stroke="black" stroke-width="1.0794"/>
<path d="M115.42 52.9866C115.42 52.9866 114.596 55.9871 114.681 56.4296C114.765 56.8721 115.815 56.5304 115.815 56.5304" stroke="black" stroke-width="1.0794"/>
<path d="M115.986 59.278C117.556 60.1259 119.375 59.5908 120.087 58.1729" stroke="black" stroke-width="1.0794"/>
<ellipse cx="119.976" cy="53.4058" rx="3.5624" ry="3.64883" transform="rotate(-46.65 119.976 53.4058)" stroke="black" stroke-width="1.0794"/>
<ellipse cx="110.864" cy="52.5708" rx="3.5624" ry="3.64883" transform="rotate(-46.65 110.864 52.5708)" stroke="black" stroke-width="1.0794"/>
<path fill-rule="evenodd" clip-rule="evenodd" d="M107.834 52.2911C107.935 50.7366 109.229 49.5299 110.787 49.5375V49.5478C110.881 49.5475 110.974 49.5523 111.067 49.5622C112.742 49.719 113.991 51.1756 113.891 52.855C113.784 54.4046 112.493 55.6052 110.939 55.5983C110.845 55.5987 110.751 55.5938 110.657 55.5839C108.982 55.4271 107.733 53.9705 107.834 52.2911ZM111.02 50.0765C110.941 50.0662 110.863 50.0662 110.787 50.0662C109.504 50.0531 108.437 51.0494 108.363 52.33C108.28 53.7227 109.316 54.9304 110.705 55.061C110.783 55.0692 110.861 55.0733 110.939 55.0733C112.221 55.0843 113.286 54.0888 113.362 52.8095C113.444 51.4165 112.409 50.2082 111.02 50.0765Z" fill="white"/>
<path d="M116.375 53.0732L114.463 52.8982" stroke="black" stroke-width="1.0794"/>
<path fill-rule="evenodd" clip-rule="evenodd" d="M116.873 53.1184C116.976 51.5258 118.302 50.2892 119.898 50.2969H119.908C120.004 50.2966 120.101 50.3014 120.196 50.3113C121.91 50.4766 123.184 51.9703 123.077 53.6885C122.974 55.2811 121.648 56.5177 120.052 56.51C119.956 56.5103 119.86 56.5055 119.764 56.4956C118.046 56.3355 116.766 54.8403 116.873 53.1184ZM120.137 50.838C120.057 50.8298 119.978 50.8256 119.898 50.8256C118.578 50.8133 117.479 51.8375 117.399 53.1553C117.318 54.5897 118.383 55.8326 119.814 55.9706C119.892 55.9809 119.974 55.9809 120.052 55.9809C121.372 55.9932 122.471 54.969 122.551 53.6513C122.631 52.2176 121.566 50.976 120.137 50.838Z" fill="white"/>
<path d="M118.784 73.8384L117.718 69.2347L116.562 64.2728" stroke="black" stroke-width="1.0794"/>
<path d="M186.61 152.057H4.01189" stroke="black" stroke-width="1.0794"/>
</svg>
