<svg width="202" height="133" viewBox="0 0 202 133" fill="none" xmlns="http://www.w3.org/2000/svg">
<path d="M141 70.5189L142.5 67.5189L141.5 66.5189L137 62.5189L135 55.0189L135.5 50.5189L133.5 50.0189L127 50.5189L124.5 48.5189L121.5 52.5189L121 57.5189L125 62.5189L129 63.5189L133 72.5189L136 73.0189L141 70.5189Z" fill="#D7E8F0"/>
<path d="M153 108.519L156.5 91.5189L150 85.0189H139L137 94.0189L135.5 99.5189L131.5 100.519L123.5 99.5189L122.5 97.5189L121.5 90.5189V83.5189L119.5 86.5189L117 88.0189L111.5 83.5189L100.5 75.0189L90 70.0189H81.5L76 72.5189L73.5 78.5189L75 84.0189L79.5 86.0189L81 87.0189L86.5 86.5189L93.5 90.5189L104 99.5189L97 105.019L92 117.519V120.019L94.5 121.019L97 120.019L99 114.519L102.5 118.019H111.5L116.5 113.019V110.519L126 113.519L133 115.519L145 118.019L153 108.519Z" fill="#D7E8F0"/>
<path d="M160.59 80.3414L160.197 84.0913C159.175 86.5335 158.154 88.9743 157.133 91.4136C156.776 92.27 156.418 93.125 156.059 93.9786C155.896 94.3778 155.665 94.7457 155.376 95.0658C155.346 95.1093 155.299 95.1371 155.247 95.1413C155.16 95.1413 155.129 95.0259 155.123 94.9393C155.073 94.0144 154.963 93.0938 154.792 92.1835C153.836 87.7879 148.732 86.177 144.729 86.2769C143.128 86.3013 141.55 86.6666 140.101 87.3486C138.011 88.3604 137.196 91.1739 137.085 91.2782L136.997 91.6399L135.563 97.6109C135.262 98.9422 135.031 99.6456 133.802 100.001C133.762 100.014 132.537 100.666 132.497 100.666C132.022 100.799 133.322 100.513 132.807 100.427L131.177 100.171L130.482 100.012L120.349 97.6131C120.741 97.6796 121.143 97.7529 121.551 97.835L123.903 98.3963L123.282 95.4142C121.664 86.1304 124.345 77.7076 128.911 73.1345C130.114 71.9319 130.711 71.6235 132.113 70.8225L132.901 72.6885C132.901 72.6885 140.96 75.0916 142.859 67.7183C143.627 67.7848 145.102 67.7737 145.863 67.9401C149.83 68.7718 153.414 70.8866 156.059 73.9577C156.292 74.224 156.52 74.4991 156.747 74.7787L156.867 74.9251C157.006 75.1004 157.155 75.2802 157.295 75.4599L157.395 75.6019C158.555 77.1157 159.622 78.6984 160.59 80.3414Z" fill="#353642"/>
<path d="M64.8324 41.5289C66.1105 35.1385 71.5379 28.9479 87.0389 27.53C121.493 24.3814 102.868 14.8825 114.087 4.48707C125.305 -5.90833 167.724 11.1947 156.627 37.9054C145.53 64.6162 182.162 34.9699 197.676 68.8032C199.924 73.7129 201.006 79.0757 200.838 84.4728C200.642 90.1754 199.174 95.7619 196.54 100.824C191.585 110.502 182.381 119.125 169.07 124.468C167.106 125.268 165.05 125.988 162.902 126.627" stroke="#CCDDE2" stroke-width="1.0234"/>
<path d="M172.141 132.287H130.205L128.956 131.915C128.956 131.915 128.703 117.676 127.03 114.033L133.242 116.145L139.26 117.876C139.26 117.876 147.539 118.049 152.271 109.599C152.271 109.599 153.068 107.582 153.782 103.946C154.399 100.79 157.679 83.3945 159.054 79.5093C160.539 82.1031 162.864 86.5653 163.987 89.2856C165.203 92.2389 166.226 95.1811 167.062 97.9081C168.455 102.398 169.553 106.973 170.351 111.605C171.544 118.435 172.143 125.354 172.141 132.287Z" fill="#353642"/>
<path d="M173.974 94.085C173.706 97.2202 171.58 97.7306 171.58 97.7306C169.783 98.7934 167.022 97.6507 166.465 95.6581C166.457 95.6369 166.453 95.6144 166.452 95.5916C166.008 93.8853 165.143 91.693 163.98 89.2944C161.739 83.8715 158.826 78.4042 155.089 74.0796C152.444 71.0087 148.861 68.8941 144.894 68.0621C144.88 68.0621 144.874 68.0488 144.86 68.0488C139.599 66.4645 137.039 63.2294 135.929 60.1274C135.929 60.1274 135.929 60.1274 135.929 60.1141C135.455 58.1548 134.971 56.2444 135.23 55.0884C135.674 53.0625 135.896 50.8725 135.344 50.4287C134.649 49.8474 133.393 50.2778 130.198 50.9213C127.431 51.4893 125.956 51.1676 125.623 49.4768C125.57 49.2146 125.543 48.9478 125.543 48.6803C125.53 48.8489 124.877 48.1788 124.846 48.3386C124.638 49.2017 124.22 49.5478 123.311 49.9273C121.959 50.4886 121.407 52.6565 121.207 54.101C120.999 55.6386 121.691 57.7599 122.239 59.2043C121.538 58.4033 120.735 58.4965 119.479 58.9825C119.164 59.1023 118.369 59.069 117.741 58.8493C117.83 58.7732 117.935 58.7178 118.048 58.6874C118.249 58.6208 116.785 57.893 116.998 57.8464C119.13 57.3649 120.326 55.5876 120.073 54.0233C119.445 50.0848 120.282 45.4518 122.942 42.3831C125.876 39.0082 130.662 38.3071 134.713 39.8514C137.895 41.0607 140.904 43.5414 142.007 46.8497C142.007 46.863 142.007 46.8763 142.02 46.8896C142.16 47.3104 142.268 47.7414 142.342 48.1788C142.748 50.6395 141.88 53.1335 141.399 55.5654C141.226 56.4419 141.665 57.3982 141.758 58.0927C142.293 62.2642 147.108 63.4424 150.918 65.213C158.926 68.943 165.465 75.32 169.863 83.0749C172.783 88.2094 173.825 91.7108 173.974 94.085Z" fill="#3FBDF1"/>
<path d="M131.758 69.9948C131.671 70.0413 131.585 70.0879 131.505 70.1412C130.067 70.9655 128.745 71.9773 127.573 73.15C123.009 77.7231 120.329 86.1459 121.946 95.4296L122.567 98.3963" stroke="black" stroke-width="1.0234"/>
<path d="M172.141 132.287C172.142 125.357 171.543 118.439 170.351 111.612C169.553 106.98 168.455 102.404 167.062 97.9148C166.226 95.1878 165.203 92.2455 163.987 89.2922C162.858 86.5286 161.553 83.8397 160.082 81.2422C158.655 78.6987 156.985 76.2992 155.096 74.0775C152.45 71.0066 148.867 68.8919 144.9 68.0599C144.139 67.8986 143.37 67.783 142.595 67.7137" stroke="black" stroke-width="1.0234"/>
<path d="M90.1276 71.9717L90.0144 71.9518C87.2609 71.4904 84.4616 72.46 82.5834 74.5256L74.9949 82.7931L74.1073 83.7694C74.0521 83.8294 74.0002 83.8923 73.952 83.9581" stroke="black" stroke-width="1.0234"/>
<path d="M79.1685 86.1169L83.3334 81.4973L83.34 81.4906" stroke="black" stroke-width="1.0234"/>
<path d="M115.398 109.979L134.989 116.882C138.806 118.227 143.02 117.846 146.534 115.837C150.048 113.828 152.515 110.39 153.292 106.418L157.927 82.7555C158.406 80.3003 157.863 77.7559 156.423 75.7106C156.224 75.4254 156.007 75.1527 155.775 74.894" stroke="black" stroke-width="1.0234"/>
<path d="M102.433 109.025C99.9394 110.709 98.1066 115.823 97.1325 119.18C96.7896 120.337 95.7249 121.129 94.5187 121.124C94.1211 121.124 93.7282 121.038 93.3671 120.871C92.2268 120.336 91.6025 119.089 91.8583 117.856C93.4891 109.881 99.2449 94.1382 119.017 97.6085C119.412 97.6751 119.814 97.7483 120.22 97.8304L122.567 98.3962L129.151 100L130.926 100.429C131.599 100.592 132.305 100.567 132.965 100.355C133.006 100.347 133.046 100.336 133.085 100.322C134.321 99.8983 135.254 98.8721 135.559 97.6019L137.057 91.3713L137.143 91.0096L139.105 82.8641" stroke="black" stroke-width="1.0234"/>
<path d="M92.7902 83.4921H86.0803C84.4873 83.4921 83.1958 82.2006 83.1958 80.6076C83.1958 79.0145 84.4873 77.723 86.0803 77.723H95.586" stroke="black" stroke-width="1.0234"/>
<path d="M87.6402 83.49C87.5448 84.666 87.0966 85.5358 86.4354 86.1371C84.7313 87.6903 81.6093 87.5128 79.4371 86.45" stroke="black" stroke-width="1.0234"/>
<path d="M75.0038 82.791C73.08 80.4656 73.4727 77.3126 74.966 74.8763C79.2019 67.9623 88.8806 69.2892 95.1577 72.1626C100.243 74.4836 104.699 77.9716 109.037 81.4508C111.156 83.1505 113.237 84.9211 115.25 86.7761C115.998 87.4534 117.016 87.7502 118.011 87.5814C119.007 87.4127 119.87 86.797 120.353 85.9107C121.462 83.8627 122.663 81.6283 122.889 81.0092" stroke="black" stroke-width="1.0234"/>
<path d="M86.4376 86.137C86.4376 86.137 96.4469 91.5665 103.882 99.3681" stroke="black" stroke-width="1.0234"/>
<path d="M99.9904 111.969C98.881 113.864 99.8351 116.646 101.932 117.312C104.61 118.176 107.441 118.46 110.237 118.144C113.288 117.789 115.316 115.271 116.652 112.386C116.847 111.952 116.849 111.456 116.657 111.02C116.465 110.585 116.097 110.251 115.645 110.103C114.807 109.827 113.899 110.242 113.559 111.055C113.115 112.08 112.429 113.363 111.52 113.939" stroke="black" stroke-width="1.0234"/>
<path d="M105.216 111.614C105.216 111.614 102.476 114.561 104.637 117.68C104.732 117.811 104.844 117.929 104.97 118.031" stroke="black" stroke-width="1.0234"/>
<path d="M108.83 112.1C108.83 112.1 106.296 117.802 109.547 118.22" stroke="black" stroke-width="1.0234"/>
<path d="M198.794 132.292H41.8672" stroke="black" stroke-width="1.0234"/>
<path fill-rule="evenodd" clip-rule="evenodd" d="M103.603 121.546H87.9531C87.624 124.605 85.0395 126.924 81.9621 126.92H29.3617C29.3678 129.882 31.7673 132.281 34.7291 132.287H103.603C106.569 132.286 108.977 129.887 108.988 126.92V123.312C108.988 122.332 108.193 121.537 107.213 121.537L103.603 121.546Z" stroke="black" stroke-width="1.0234"/>
<path fill-rule="evenodd" clip-rule="evenodd" d="M79.437 86.4498C79.8981 87.0878 80.2298 87.81 80.4133 88.5755L87.8266 119.493C87.9903 120.164 88.0331 120.859 87.9531 121.546C87.624 124.605 85.0395 126.924 81.9621 126.92H28.3853C25.6 126.919 23.1783 125.009 22.5297 122.3L15.1298 91.3846C14.6988 89.5911 15.1137 87.6991 16.2558 86.2506C17.3978 84.8022 19.1409 83.9573 20.9854 83.958H74.5577C76.3396 83.9545 78.0302 84.7461 79.1686 86.117L79.437 86.4498Z" stroke="black" stroke-width="1.0234"/>
<path fill-rule="evenodd" clip-rule="evenodd" d="M69.9691 46.8097C70.3441 47.1847 70.7035 47.5708 71.0452 47.9724C73.3745 51.6132 74.607 55.8473 74.5954 60.1695C74.5954 67.032 69.0323 72.5951 62.1698 72.5951H55.4666C53.7172 72.5964 52.2993 74.0143 52.298 75.7637V75.9101C52.2971 77.1843 53.1057 78.3183 54.3106 78.7325C54.3106 78.7617 54.3137 78.7908 54.3169 78.8207L54.317 78.8208C54.3204 78.8524 54.3239 78.8848 54.3239 78.9189L47.5253 79.092H47.4565C45.7046 79.092 44.2837 77.6731 44.2813 75.9212C44.2813 74.1713 42.8627 72.7527 41.1127 72.7527H13.5766C10.2435 72.7629 7.04742 71.4276 4.7122 69.0494C3.68357 67.202 3.14504 65.1219 3.1479 63.0074V62.8454C3.14495 56.8265 5.5345 51.0533 9.7903 46.7971C14.0461 42.5408 19.8191 40.1507 25.838 40.1531H53.9245C59.9452 40.1495 65.7192 42.545 69.9691 46.8097ZM17.3873 57.7666C18.2285 59.7968 20.2101 61.1201 22.4076 61.1192C25.4044 61.1168 27.8335 58.6886 27.8372 55.6919C27.839 53.4943 26.5165 51.5122 24.4866 50.6702C22.4568 49.8282 20.1196 50.2922 18.5654 51.8458C17.0111 53.3994 16.5461 55.7364 17.3873 57.7666ZM40.1297 61.1192C37.9326 61.1183 35.9523 59.7938 35.1126 57.7635C34.2728 55.7332 34.7389 53.3969 36.2934 51.8442C37.848 50.2915 40.1849 49.8283 42.2142 50.6706C44.2435 51.5129 45.5655 53.4947 45.5637 55.6919C45.5637 57.1324 44.991 58.5139 43.9717 59.5319C42.9525 60.5499 41.5703 61.121 40.1297 61.1192ZM51.5813 55.6829C51.5789 58.6828 54.0088 61.1167 57.0087 61.1192C58.4496 61.1215 59.8324 60.5508 60.8521 59.5327C61.8719 58.5146 62.4449 57.1328 62.4449 55.6918C62.4473 52.6919 60.0174 50.258 57.0175 50.2556C54.0176 50.2531 51.5838 52.683 51.5813 55.6829Z" fill="#D7E8F0"/>
<path fill-rule="evenodd" clip-rule="evenodd" d="M74.5955 60.1719C74.5955 67.0344 69.0323 72.5975 62.1698 72.5975H55.4711C53.7225 72.5988 52.305 74.0153 52.3025 75.7639V75.9103C52.3015 77.1844 53.1101 78.3184 54.315 78.7327C54.6246 78.8403 54.9503 78.8943 55.278 78.8925L54.3283 78.9191L47.5253 79.0922H47.4521C45.701 79.0922 44.2805 77.6746 44.2769 75.9236C44.2769 74.1737 42.8583 72.7551 41.1083 72.7551H13.5766C6.7141 72.7551 1.15094 67.1919 1.15094 60.3294V60.1674C1.15153 54.1526 3.54149 48.3843 7.79505 44.1316C12.0486 39.8788 17.8174 37.49 23.8322 37.4906H51.9098C64.4365 37.4918 74.5918 47.6451 74.5955 60.1719V60.1719Z" stroke="black" stroke-width="1.0234"/>
<path d="M144.894 68.0532C144.88 68.0532 144.874 68.0399 144.86 68.0399C139.599 66.4556 137.039 63.2205 135.929 60.1186C135.929 60.1186 135.929 60.1186 135.929 60.1052C135.062 57.6867 135.082 55.3458 135.395 53.9479C135.582 53.2074 135.701 52.4513 135.75 51.6891C135.823 49.5301 134.239 50.0582 129.708 50.9613C127.626 51.3829 126.295 50.593 125.629 49.4702C125.565 49.3723 125.508 49.2692 125.461 49.1618C125.15 48.5083 125.021 47.7832 125.088 47.0627" stroke="black" stroke-width="1.0234"/>
<path d="M122.481 59.4973C122.401 59.3842 122.319 59.2755 122.239 59.1889C121.538 58.3879 120.735 58.4811 119.479 58.967C119.164 59.0868 118.369 59.0536 117.741 58.8339C117.213 58.6453 116.818 58.3191 116.998 57.831C117.092 57.6275 117.274 57.4791 117.493 57.4294C117.702 57.3766 117.914 57.3343 118.127 57.3029C120.282 56.8214 119.8 54.3274 119.539 52.7631C118.904 48.8268 119.747 44.1938 122.434 41.1251C125.394 37.7502 130.236 37.0468 134.325 38.5912C137.922 39.9491 141.306 42.8958 142.007 46.8343C142.007 46.8476 142.007 46.8609 142.02 46.8742C142.034 46.8875 142.02 46.9075 142.02 46.9208C142.435 49.3815 142.02 52.0486 141.539 54.4827C141.25 55.925 141.359 57.1032 141.761 58.0773C143.019 61.2658 147.263 62.3774 150.685 63.955C158.782 67.685 165.378 74.062 169.825 81.8169C173.335 87.9676 174.167 91.7508 173.974 94.0851C173.706 97.2203 171.58 97.7307 171.58 97.7307C169.783 98.7935 167.02 97.6508 166.465 95.6582C166.457 95.637 166.453 95.6145 166.452 95.5917C166.008 93.8854 165.143 91.6931 163.98 89.2945" stroke="black" stroke-width="1.0234"/>
<path d="M125.079 47.0627C125.079 48.2498 124.52 49.4214 123.304 49.9206C121.937 50.4842 121.383 51.9687 121.183 53.4131C120.904 55.5282 121.359 57.6751 122.472 59.4951C123.504 61.208 125.183 63.0963 127.562 63.0963C131.92 63.0963 133.788 60.995 133.788 60.995" stroke="black" stroke-width="1.0234"/>
<circle cx="129.603" cy="53.3533" r="0.741102" fill="black"/>
<circle cx="123.084" cy="53.7859" r="0.741102" fill="black"/>
<path d="M126.282 52.6566C126.282 52.6566 125.911 55.5833 126.06 55.9849C126.209 56.3865 127.136 55.9272 127.136 55.9272" stroke="black" stroke-width="1.0234"/>
<path d="M127.655 58.4877C129.242 59.0713 130.879 58.328 131.359 56.9012" stroke="black" stroke-width="1.0234"/>
<ellipse cx="130.614" cy="52.4283" rx="3.37712" ry="3.45922" transform="rotate(-54.76 130.614 52.4283)" stroke="black" stroke-width="1.0234"/>
<ellipse cx="121.948" cy="52.8638" rx="3.37712" ry="3.45922" transform="rotate(-54.76 121.948 52.8638)" stroke="black" stroke-width="1.0234"/>
<path fill-rule="evenodd" clip-rule="evenodd" d="M121.738 50.0072H121.886C123.425 50.0114 124.704 51.1938 124.828 52.7275C124.886 53.4818 124.635 54.2271 124.133 54.7932C123.631 55.3594 122.921 55.698 122.166 55.7319H122.017C120.478 55.7277 119.199 54.5452 119.075 53.0115C119.018 52.2572 119.269 51.512 119.77 50.9458C120.272 50.3797 120.982 50.0411 121.738 50.0072ZM124.327 52.7652C124.229 51.4905 123.165 50.5071 121.886 50.5108V50.5086H121.762C121.137 50.5366 120.55 50.8168 120.136 51.2852C119.725 51.7486 119.521 52.3589 119.57 52.976C119.666 54.2516 120.731 55.2362 122.01 55.2326H122.135C122.761 55.2062 123.349 54.9258 123.763 54.456C124.173 53.9925 124.377 53.382 124.327 52.7652Z" fill="white"/>
<path d="M127.192 52.6099L125.372 52.7031" stroke="black" stroke-width="1.0234"/>
<ellipse opacity="0.53" cx="130.614" cy="52.4282" rx="2.86012" ry="2.92891" transform="rotate(-54.76 130.614 52.4282)" fill="white"/>
<ellipse opacity="0.53" cx="121.948" cy="52.8638" rx="2.86012" ry="2.92891" transform="rotate(-54.76 121.948 52.8638)" fill="white"/>
<path d="M128.86 63.0962L132.901 72.695C132.901 72.695 140.696 74.7918 142.59 67.4163" stroke="black" stroke-width="1.0234"/>
<ellipse cx="50.2384" cy="106.636" rx="5.79346" ry="6.51016" transform="rotate(-17.5 50.2384 106.636)" fill="#D7E8F0"/>
<path d="M127.782 132.287C127.695 124.475 126.317 116.755 125.683 113.604" stroke="black" stroke-width="1.0234"/>
</svg>
