<svg width="61" height="85" viewBox="0 0 61 85" fill="none" xmlns="http://www.w3.org/2000/svg">
<g clip-path="url(#clip0_42_133)">
<path d="M30.7631 83.8525L6.50255 77.1176L1.09619 16.479H60.5027L55.0906 77.1081L30.7631 83.8525Z" fill="#264DE4"/>
<path d="M50.4572 73.2474L55.0821 21.437H30.7993V78.6973L50.4572 73.2474Z" fill="#2965F1"/>
<path d="M13.4902 43.9272L14.1568 51.3642H30.7995V43.9272H13.4902Z" fill="#EBEBEB"/>
<path d="M12.1509 28.8745L12.8269 36.3117H30.7995V28.8745H12.1509Z" fill="#EBEBEB"/>
<path d="M30.7992 63.2422L30.7666 63.2509L22.4839 61.0144L21.9544 55.083H14.4888L15.5307 66.7603L30.765 70.9894L30.7992 70.9799V63.2422Z" fill="#EBEBEB"/>
<path d="M15.0771 0H24.0847V3.76681H18.844V7.53362H24.0847V11.3004H15.0771V0Z" fill="white"/>
<path d="M25.8862 0H34.8938V3.27549H29.653V3.93058H34.8938V11.4642H25.8862V8.02494H31.127V7.36984H25.8862V0Z" fill="white"/>
<path d="M36.6953 0H45.7029V3.27549H40.4621V3.93058H45.7029V11.4642H36.6953V8.02494H41.9361V7.36984H36.6953V0Z" fill="white"/>
<path d="M48.0613 43.9273L49.4039 28.8745H30.7739V36.3117H41.2535L40.5768 43.9273H30.7739V51.3643H39.9319L39.0686 61.0097L30.7739 63.2485V70.9858L46.0203 66.7603L46.1322 65.5038L47.8798 45.9244L48.0613 43.9273Z" fill="white"/>
</g>
<defs>
<clipPath id="clip0_42_133">
<rect width="59.6139" height="84.0649" fill="white" transform="translate(0.992676)"/>
</clipPath>
</defs>
</svg>
