<svg width="122" height="36" viewBox="0 0 122 36" fill="none" xmlns="http://www.w3.org/2000/svg">
<path d="M1.77026 27.9855V14.6054H18.4759V13.8229H1.77026V1.61645H19.5322V0.833984H0.987793V28.7679H19.6887V27.9855H1.77026ZM34.7511 8.65862L27.8263 17.7743L21.058 8.65862H20.0408L27.3568 18.3612L19.3366 28.7679H20.2755L27.8263 18.948L35.4162 28.7679H36.3943L28.3349 18.3612L35.6901 8.65862H34.7511ZM38.7417 35.6536V23.1342H38.8199C39.2894 24.96 40.2153 26.4271 41.5977 27.5356C42.98 28.6441 44.7406 29.1983 46.8793 29.1983C48.2617 29.1983 49.4875 28.9179 50.5569 28.3572C51.6263 27.7964 52.5196 27.0335 53.2368 26.0684C53.9541 25.1034 54.5018 23.9819 54.88 22.7039C55.2582 21.4258 55.4473 20.0826 55.4473 18.6742C55.4473 17.1614 55.2517 15.766 54.8604 14.488C54.4692 13.21 53.9019 12.1015 53.1586 11.1625C52.4152 10.2235 51.5154 9.49325 50.4591 8.97161C49.4027 8.44996 48.2095 8.18915 46.8793 8.18915C45.8621 8.18915 44.9166 8.33912 44.0429 8.63906C43.1691 8.93901 42.3932 9.36284 41.715 9.91057C41.0369 10.4583 40.4501 11.1038 39.9545 11.8472C39.4589 12.5905 39.0807 13.4056 38.8199 14.2924H38.7417V8.65862H37.9592V35.6536H38.7417ZM46.8793 28.455C44.4276 28.455 42.4584 27.6138 40.9717 25.9315C39.485 24.2492 38.7417 21.8301 38.7417 18.6742C38.7417 17.3701 38.9243 16.1312 39.2894 14.9575C39.6546 13.7838 40.1827 12.7535 40.8739 11.8667C41.5651 10.9799 42.4193 10.2757 43.4365 9.75407C44.4537 9.23243 45.6013 8.97161 46.8793 8.97161C48.1834 8.97161 49.3245 9.23243 50.3026 9.75407C51.2807 10.2757 52.0892 10.9865 52.7282 11.8863C53.3672 12.7861 53.8498 13.8164 54.1758 14.977C54.5018 16.1377 54.6648 17.3701 54.6648 18.6742C54.6648 19.8479 54.5148 21.015 54.2149 22.1757C53.915 23.3363 53.452 24.3796 52.826 25.3055C52.2001 26.2315 51.398 26.9878 50.42 27.5747C49.4419 28.1615 48.2617 28.455 46.8793 28.455ZM59.7508 28.7679V17.3831C59.7508 16.2876 59.9073 15.2183 60.2203 14.175C60.5333 13.1317 61.0158 12.2123 61.6679 11.4168C62.3199 10.6213 63.148 9.99534 64.1522 9.5389C65.1564 9.08246 66.3496 8.89336 67.732 8.97161V8.18915C66.5322 8.16306 65.4824 8.29347 64.5825 8.58038C63.6827 8.86728 62.9068 9.25851 62.2547 9.75407C61.6027 10.2496 61.081 10.83 60.6898 11.4951C60.2986 12.1602 60.0117 12.8709 59.8291 13.6273H59.7508V8.65862H58.9684V28.7679H59.7508ZM68.7101 18.8698H85.533C85.5852 17.4874 85.4483 16.1572 85.1222 14.8792C84.7962 13.6012 84.2746 12.4666 83.5573 11.4755C82.84 10.4844 81.9141 9.68887 80.7796 9.08898C79.645 8.48909 78.2952 8.18915 76.7303 8.18915C75.6088 8.18915 74.5133 8.42388 73.444 8.89336C72.3746 9.36284 71.4356 10.0475 70.6271 10.9473C69.8185 11.8472 69.1665 12.9491 68.6709 14.2532C68.1754 15.5574 67.9276 17.044 67.9276 18.7133C67.9276 20.2 68.0971 21.5888 68.4362 22.8799C68.7753 24.171 69.2969 25.2925 70.0011 26.2445C70.7053 27.1965 71.6117 27.9333 72.7202 28.455C73.8287 28.9766 75.1654 29.2244 76.7303 29.1983C79.0255 29.1983 80.9556 28.5528 82.5205 27.2617C84.0855 25.9706 85.0114 24.1514 85.2983 21.804H84.5158C84.1768 24.021 83.3095 25.6837 81.9141 26.7922C80.5187 27.9007 78.7647 28.455 76.6521 28.455C75.2175 28.455 74.0047 28.2072 73.0136 27.7116C72.0225 27.2161 71.2139 26.5379 70.588 25.6772C69.962 24.8165 69.499 23.8058 69.1991 22.6452C68.8991 21.4845 68.7361 20.2261 68.7101 18.8698ZM84.7506 18.0873H68.7101C68.7883 16.6789 69.0491 15.4139 69.4925 14.2924C69.9359 13.1708 70.5162 12.2123 71.2335 11.4168C71.9508 10.6213 72.7854 10.0149 73.7374 9.59758C74.6894 9.18027 75.7131 8.97161 76.8085 8.97161C78.1127 8.97161 79.2603 9.21287 80.2514 9.69539C81.2425 10.1779 82.0706 10.8365 82.7357 11.6711C83.4008 12.5057 83.9029 13.4773 84.242 14.5858C84.581 15.6943 84.7506 16.8614 84.7506 18.0873ZM101.769 14.6054H102.552C102.552 12.3623 101.9 10.7322 100.595 9.71495C99.2913 8.69774 97.5178 8.18915 95.2747 8.18915C94.0228 8.18915 92.9664 8.34564 92.1057 8.65862C91.245 8.97161 90.5408 9.37588 89.9931 9.87144C89.4453 10.367 89.0541 10.9147 88.8194 11.5146C88.5846 12.1145 88.4673 12.6883 88.4673 13.236C88.4673 14.3315 88.6629 15.2052 89.0541 15.8573C89.4453 16.5093 90.0583 17.0179 90.8929 17.3831C91.4667 17.6439 92.1188 17.8787 92.8491 18.0873C93.5794 18.296 94.427 18.5177 95.3921 18.7524C96.2528 18.9611 97.1004 19.1697 97.9351 19.3784C98.7697 19.587 99.5065 19.8674 100.146 20.2195C100.785 20.5716 101.306 21.0216 101.71 21.5693C102.115 22.117 102.317 22.8343 102.317 23.7211C102.317 24.5818 102.115 25.3121 101.71 25.912C101.306 26.5118 100.791 27.0009 100.165 27.3791C99.5391 27.7573 98.8414 28.0311 98.072 28.2007C97.3026 28.3702 96.5527 28.455 95.8224 28.455C93.4489 28.455 91.6297 27.9268 90.3647 26.8705C89.0997 25.8141 88.4673 24.1514 88.4673 21.8823H87.6848C87.6848 24.4122 88.3694 26.2641 89.7388 27.4378C91.1081 28.6115 93.1359 29.1983 95.8224 29.1983C96.6831 29.1983 97.5504 29.1005 98.4241 28.9049C99.2979 28.7093 100.08 28.3898 100.772 27.9464C101.463 27.503 102.023 26.9292 102.454 26.2249C102.884 25.5207 103.099 24.66 103.099 23.6428C103.099 22.6778 102.91 21.8953 102.532 21.2954C102.154 20.6955 101.658 20.2 101.045 19.8087C100.432 19.4175 99.7413 19.111 98.9718 18.8893C98.2024 18.6676 97.4265 18.4525 96.644 18.2438C95.5486 17.9569 94.59 17.7091 93.7685 17.5005C92.9469 17.2918 92.184 17.044 91.4797 16.7571C90.8016 16.4702 90.2604 16.0594 89.8561 15.5247C89.4519 14.9901 89.2497 14.2272 89.2497 13.236C89.2497 13.0535 89.3019 12.7274 89.4062 12.258C89.5106 11.7885 89.7583 11.3125 90.1496 10.83C90.5408 10.3474 91.1407 9.91709 91.9492 9.5389C92.7578 9.1607 93.8663 8.97161 95.2747 8.97161C96.2397 8.97161 97.12 9.07594 97.9155 9.2846C98.711 9.49325 99.3957 9.8258 99.9695 10.2822C100.543 10.7387 100.987 11.319 101.3 12.0232C101.613 12.7274 101.769 13.5881 101.769 14.6054ZM119.883 14.6054H120.666C120.666 12.3623 120.014 10.7322 118.709 9.71495C117.405 8.69774 115.632 8.18915 113.389 8.18915C112.137 8.18915 111.08 8.34564 110.22 8.65862C109.359 8.97161 108.655 9.37588 108.107 9.87144C107.559 10.367 107.168 10.9147 106.933 11.5146C106.699 12.1145 106.581 12.6883 106.581 13.236C106.581 14.3315 106.777 15.2052 107.168 15.8573C107.559 16.5093 108.172 17.0179 109.007 17.3831C109.581 17.6439 110.233 17.8787 110.963 18.0873C111.693 18.296 112.541 18.5177 113.506 18.7524C114.367 18.9611 115.214 19.1697 116.049 19.3784C116.884 19.587 117.621 19.8674 118.26 20.2195C118.899 20.5716 119.42 21.0216 119.825 21.5693C120.229 22.117 120.431 22.8343 120.431 23.7211C120.431 24.5818 120.229 25.3121 119.825 25.912C119.42 26.5118 118.905 27.0009 118.279 27.3791C117.653 27.7573 116.955 28.0311 116.186 28.2007C115.417 28.3702 114.667 28.455 113.936 28.455C111.563 28.455 109.744 27.9268 108.479 26.8705C107.214 25.8141 106.581 24.1514 106.581 21.8823H105.799C105.799 24.4122 106.483 26.2641 107.853 27.4378C109.222 28.6115 111.25 29.1983 113.936 29.1983C114.797 29.1983 115.664 29.1005 116.538 28.9049C117.412 28.7093 118.194 28.3898 118.886 27.9464C119.577 27.503 120.137 26.9292 120.568 26.2249C120.998 25.5207 121.213 24.66 121.213 23.6428C121.213 22.6778 121.024 21.8953 120.646 21.2954C120.268 20.6955 119.772 20.2 119.159 19.8087C118.546 19.4175 117.855 19.111 117.086 18.8893C116.316 18.6676 115.541 18.4525 114.758 18.2438C113.663 17.9569 112.704 17.7091 111.882 17.5005C111.061 17.2918 110.298 17.044 109.594 16.7571C108.916 16.4702 108.374 16.0594 107.97 15.5247C107.566 14.9901 107.364 14.2272 107.364 13.236C107.364 13.0535 107.416 12.7274 107.52 12.258C107.625 11.7885 107.872 11.3125 108.264 10.83C108.655 10.3474 109.255 9.91709 110.063 9.5389C110.872 9.1607 111.98 8.97161 113.389 8.97161C114.354 8.97161 115.234 9.07594 116.03 9.2846C116.825 9.49325 117.51 9.8258 118.084 10.2822C118.657 10.7387 119.101 11.319 119.414 12.0232C119.727 12.7274 119.883 13.5881 119.883 14.6054Z" fill="white"/>
</svg>
