<svg width="74" height="73" viewBox="0 0 74 73" fill="none" xmlns="http://www.w3.org/2000/svg">
<path d="M71.8018 32.9421L40.2839 1.42647C38.4701 -0.388902 35.526 -0.388902 33.7099 1.42647L27.1652 7.97116L35.4674 16.2734C37.3969 15.6216 39.609 16.0588 41.1472 17.5969C42.6925 19.1446 43.1265 21.3758 42.4588 23.3116L50.4601 31.3128C52.3959 30.6459 54.6294 31.0776 56.1755 32.626C58.3362 34.7859 58.3362 38.2868 56.1755 40.4483C54.014 42.6098 50.5132 42.6098 48.3509 40.4483C46.7256 38.8214 46.324 36.4342 47.147 34.4319L39.6851 26.97L39.6843 46.6065C40.211 46.8679 40.7084 47.2156 41.1472 47.6528C43.3079 49.8127 43.3079 53.3135 41.1472 55.4766C38.9857 57.6373 35.4833 57.6373 33.3249 55.4766C31.1642 53.3135 31.1642 49.8127 33.3249 47.6528C33.8588 47.1197 34.4766 46.7166 35.1356 46.4457V26.6263C34.4766 26.357 33.8596 25.9562 33.3249 25.4192C31.6878 23.7844 31.2941 21.3821 32.1329 19.3719L23.9495 11.1869L2.33844 32.7963C0.522277 34.6133 0.522277 37.5573 2.33844 39.3727L33.8564 70.8891C35.671 72.7045 38.6142 72.7045 40.4312 70.8891L71.8018 39.5192C73.6172 37.7031 73.6172 34.7574 71.8018 32.9421Z" fill="#DE4C36"/>
</svg>
