<svg width="73" height="72" viewBox="0 0 73 72" fill="none" xmlns="http://www.w3.org/2000/svg">
<path d="M36.2572 0.955078C16.3257 0.955078 0.16333 17.1145 0.16333 37.0489C0.16333 52.9961 10.5053 66.5256 24.8465 71.2982C26.6503 71.6323 27.3126 70.5153 27.3126 69.5619C27.3126 68.7012 27.2791 65.858 27.2636 62.842C17.2222 65.0254 15.1034 58.5834 15.1034 58.5834C13.4615 54.4115 11.0958 53.3021 11.0958 53.3021C7.82104 51.062 11.3427 51.108 11.3427 51.108C14.9671 51.3626 16.8756 54.8275 16.8756 54.8275C20.0948 60.3454 25.3193 58.7501 27.3789 57.8279C27.7029 55.4951 28.6383 53.9028 29.6705 53.0015C21.6536 52.0888 13.226 48.9939 13.226 35.1638C13.226 31.2231 14.636 28.0033 16.9449 25.4757C16.5702 24.5666 15.3347 20.8955 17.2946 15.9238C17.2946 15.9238 20.3255 14.9538 27.2229 19.6236C30.1021 18.8239 33.1898 18.4228 36.2572 18.4091C39.3245 18.4228 42.4146 18.8239 45.2991 19.6236C52.1882 14.9538 55.215 15.9238 55.215 15.9238C57.1796 20.8955 55.9436 24.5666 55.5688 25.4757C57.8831 28.0033 59.2835 31.2231 59.2835 35.1638C59.2835 49.0268 50.8398 52.0792 42.8026 52.9728C44.0972 54.0929 45.2507 56.2894 45.2507 59.6569C45.2507 64.4863 45.2089 68.3731 45.2089 69.5619C45.2089 70.5224 45.8586 71.6479 47.6881 71.2934C62.0215 66.5154 72.3504 52.9907 72.3504 37.0489C72.3504 17.1145 56.1904 0.955078 36.2572 0.955078ZM13.6816 52.3715C13.6021 52.5508 13.32 52.6046 13.063 52.4815C12.8012 52.3637 12.6542 52.1193 12.7391 51.9394C12.8168 51.7547 13.0995 51.7033 13.3607 51.827C13.6231 51.9447 13.7725 52.1916 13.6816 52.3715ZM15.4571 53.9557C15.2849 54.1153 14.9484 54.0411 14.7201 53.7889C14.484 53.5373 14.4398 53.2008 14.6143 53.0388C14.7918 52.8792 15.1182 52.9539 15.3548 53.2056C15.5909 53.4602 15.637 53.7943 15.4571 53.9557ZM16.6751 55.9826C16.4539 56.1362 16.0923 55.9921 15.8688 55.6712C15.6476 55.3502 15.6476 54.9653 15.8735 54.8111C16.0977 54.6569 16.4539 54.7955 16.6804 55.1141C16.901 55.4405 16.901 55.8254 16.6751 55.9826ZM18.735 58.33C18.5371 58.5482 18.1157 58.4896 17.8073 58.192C17.4917 57.9009 17.4039 57.4879 17.6023 57.2697C17.8025 57.0509 18.2263 57.1125 18.5371 57.4078C18.8503 57.6983 18.9459 58.1143 18.735 58.33ZM21.3972 59.1225C21.3099 59.4052 20.9041 59.5337 20.4953 59.4136C20.087 59.2898 19.8199 58.9587 19.9023 58.673C19.9872 58.3885 20.3948 58.2546 20.8067 58.3831C21.2143 58.5063 21.4821 58.835 21.3972 59.1225ZM24.4269 59.4586C24.4371 59.7563 24.0904 60.0031 23.6613 60.0085C23.2297 60.0181 22.8807 59.7772 22.8759 59.4843C22.8759 59.1837 23.2148 58.9392 23.6463 58.9321C24.0755 58.9237 24.4269 59.1628 24.4269 59.4586ZM27.4033 59.3445C27.4547 59.635 27.1564 59.9333 26.7303 60.0128C26.3113 60.0893 25.9234 59.91 25.8702 59.6219C25.8182 59.3242 26.1218 59.026 26.5402 58.9489C26.9669 58.8748 27.3489 59.0493 27.4033 59.3445Z" fill="white"/>
</svg>
