<svg width="60" height="85" viewBox="0 0 60 85" fill="none" xmlns="http://www.w3.org/2000/svg">
<g clip-path="url(#clip0_42_121)">
<path d="M59.8889 16.479L54.4769 77.1081L30.1493 83.8525L5.88878 77.1176L0.482422 16.479H59.8889Z" fill="#E44D26"/>
<path d="M30.1855 78.6973L49.8434 73.2474L54.4684 21.437H30.1855V78.6973Z" fill="#F16529"/>
<path d="M19.6649 36.3117H30.1858V28.8745H11.5371L11.7151 30.8698L13.543 51.3643H30.1858V43.9273H20.3446L19.6649 36.3117Z" fill="#EBEBEB"/>
<path d="M21.3407 55.083H13.875L14.9169 66.7603L30.1512 70.9894L30.1855 70.9799V63.2422L30.1529 63.2509L21.8701 61.0144L21.3407 55.083Z" fill="#EBEBEB"/>
<path d="M6.00977 0H9.78919V3.73405H13.2465V0H17.026V11.3076H13.2466V7.52117H9.78935V11.3076H6.00993L6.00977 0Z" fill="white"/>
<path d="M21.9962 3.74978H18.6689V0H29.1046V3.74978H25.7759V11.3076H21.9963L21.9962 3.74978Z" fill="white"/>
<path d="M30.7607 0H34.7016L37.1258 3.97317L39.5476 0H43.4899V11.3076H39.7261V5.70295L37.1258 9.72345H37.0608L34.4588 5.70295V11.3076H30.7607V0Z" fill="white"/>
<path d="M45.3706 0H49.1512V7.56998H54.4661V11.3076H45.3706V0Z" fill="white"/>
<path d="M30.1602 51.3642H39.3181L38.4548 61.0096L30.1602 63.2484V70.9857L45.4066 66.7602L45.5184 65.5037L47.2661 45.9243L47.4475 43.9272H30.1602V51.3642Z" fill="white"/>
<path d="M30.1602 36.2935V36.3117H48.1242L48.2734 34.64L48.6123 30.8698L48.7901 28.8745H30.1602V36.2935Z" fill="white"/>
</g>
<defs>
<clipPath id="clip0_42_121">
<rect width="59.6139" height="84.0649" fill="white" transform="translate(0.378906)"/>
</clipPath>
</defs>
</svg>
