<svg width="61" height="60" viewBox="0 0 61 60" fill="none" xmlns="http://www.w3.org/2000/svg">
<g clip-path="url(#clip0_42_144)">
<path d="M0.606689 0.225586H60.2206V59.8394H0.606689V0.225586Z" fill="#F7DF1E"/>
<path d="M16.2813 50.0434L20.8434 47.2825C21.7235 48.843 22.5241 50.1633 24.4446 50.1633C26.2854 50.1633 27.446 49.4432 27.446 46.6423V27.5942H33.0482V46.7215C33.0482 52.5239 29.647 55.165 24.6847 55.165C20.2032 55.165 17.6017 52.8439 16.2812 50.0429" fill="black"/>
<path d="M36.0911 49.4431L40.6526 46.802C41.8534 48.763 43.414 50.2035 46.175 50.2035C48.4962 50.2035 49.9765 49.0429 49.9765 47.4422C49.9765 45.5214 48.4559 44.8411 45.8948 43.721L44.4946 43.1203C40.4527 41.4 37.7715 39.2391 37.7715 34.6771C37.7715 30.4754 40.9728 27.2739 45.975 27.2739C49.5365 27.2739 52.0976 28.5146 53.9381 31.7559L49.5763 34.5569C48.6158 32.8364 47.5757 32.1562 45.9751 32.1562C44.3344 32.1562 43.2939 33.1966 43.2939 34.5569C43.2939 36.2377 44.3344 36.9181 46.7352 37.9586L48.1356 38.5588C52.8976 40.5998 55.5788 42.6804 55.5788 47.3622C55.5788 52.4046 51.6173 55.1655 46.2952 55.1655C41.093 55.1655 37.7315 52.6846 36.0911 49.4431Z" fill="black"/>
</g>
<defs>
<clipPath id="clip0_42_144">
<rect width="59.6139" height="59.6139" fill="white" transform="translate(0.606689 0.225586)"/>
</clipPath>
</defs>
</svg>
