<svg width="151" height="44" viewBox="0 0 151 44" fill="none" xmlns="http://www.w3.org/2000/svg">
<path d="M14.2234 7.24235C12.7572 5.50275 11.4946 3.73597 11.2367 3.36902C11.2095 3.34184 11.1688 3.34184 11.1416 3.36902C10.8837 3.73597 9.62111 5.50275 8.15489 7.24235C-4.43002 23.2929 10.137 34.1247 10.137 34.1247L10.2592 34.2063C10.3678 35.8778 10.6393 38.2834 10.6393 38.2834H11.1823H11.7254C11.7254 38.2834 11.9969 35.8914 12.1055 34.2063L12.2277 34.1111C12.2413 34.1247 26.8083 23.2929 14.2234 7.24235ZM11.1823 33.88C11.1823 33.88 10.5307 33.3228 10.3542 33.0375V33.0102L11.1416 15.5327C11.1416 15.4783 11.2231 15.4783 11.2231 15.5327L12.0105 33.0102V33.0375C11.834 33.3228 11.1823 33.88 11.1823 33.88Z" fill="#01EC64"/>
<path d="M38.4437 30.3136L32.3735 15.4877L32.3599 15.4468H27.637V16.4434H28.3992C28.6306 16.4434 28.8483 16.5389 29.0117 16.7027C29.175 16.8666 29.2567 17.085 29.2567 17.3171L29.1206 32.2386C29.1206 32.7027 28.7396 33.0849 28.2767 33.0986L27.501 33.1122V34.0952H32.1014V33.1122L31.6249 33.0986C31.1622 33.0849 30.781 32.7027 30.781 32.2386V18.1771L37.3958 34.0952C37.491 34.3272 37.7087 34.4774 37.9538 34.4774C38.1988 34.4774 38.4165 34.3272 38.5118 34.0952L44.9768 18.532L45.0721 32.2386C45.0721 32.7164 44.6909 33.0986 44.2146 33.1122H43.7246V34.0952H49.1143V33.1122H48.3793C47.9166 33.1122 47.5355 32.7164 47.5219 32.2522L47.4811 17.3307C47.4811 16.8529 47.8621 16.4707 48.325 16.457L49.1143 16.4434V15.4468H44.5139L38.4437 30.3136ZM80.7689 32.8525C80.6187 32.7021 80.5369 32.497 80.5369 32.2508V24.9208C80.5369 23.526 80.1276 22.4318 79.3087 21.6524C78.5037 20.8728 77.3847 20.4763 75.9929 20.4763C74.0415 20.4763 72.4996 21.2695 71.4215 22.8285C71.4079 22.8558 71.367 22.8695 71.3261 22.8695C71.285 22.8695 71.2578 22.8421 71.2578 22.8012L70.7528 20.8455H69.9068L67.7372 22.09V22.7737H68.2967C68.5559 22.7737 68.7742 22.8421 68.9244 22.979C69.0745 23.1157 69.1563 23.3208 69.1563 23.6079V32.2371C69.1563 32.4833 69.0745 32.6884 68.9244 32.8389C68.7742 32.9892 68.5696 33.0713 68.324 33.0713H67.7781V34.0696H72.7724V33.0713H72.2266C71.981 33.0713 71.7763 32.9892 71.6262 32.8389C71.4761 32.6884 71.3942 32.4833 71.3942 32.2371V26.5208C71.3942 25.796 71.558 25.0712 71.8582 24.36C72.172 23.6627 72.6359 23.0747 73.2501 22.6234C73.8641 22.1721 74.601 21.9532 75.447 21.9532C76.4022 21.9532 77.1255 22.254 77.5757 22.8558C78.0261 23.4576 78.2581 24.237 78.2581 25.1669V32.2235C78.2581 32.4695 78.1761 32.6747 78.0261 32.8251C77.876 32.9756 77.6713 33.0576 77.4257 33.0576H76.8799V34.0559H81.8742V33.0576H81.3284C81.1237 33.085 80.9326 33.0029 80.7689 32.8525ZM126.399 16.563C125.018 15.8279 123.475 15.4468 121.81 15.4468H115.314V16.4405H115.95C116.193 16.4405 116.41 16.5358 116.627 16.7536C116.83 16.9578 116.938 17.1893 116.938 17.4343V32.0821C116.938 32.3271 116.83 32.5586 116.627 32.7627C116.424 32.9669 116.193 33.0758 115.95 33.0758H115.314V34.0696H121.81C123.475 34.0696 125.018 33.6884 126.399 32.9533C127.779 32.2182 128.902 31.1291 129.714 29.7407C130.527 28.3521 130.946 26.6777 130.946 24.7718C130.946 22.866 130.527 21.2052 129.714 19.803C128.889 18.3873 127.779 17.3118 126.399 16.563ZM128.334 24.7446C128.334 26.4871 128.023 27.9572 127.414 29.1416C126.805 30.326 125.992 31.2108 124.991 31.7827C123.989 32.3544 122.879 32.6403 121.688 32.6403H120.376C120.132 32.6403 119.915 32.545 119.699 32.3271C119.496 32.1229 119.388 31.8915 119.388 31.6465V17.8291C119.388 17.5841 119.482 17.3663 119.699 17.1484C119.902 16.9442 120.132 16.8353 120.376 16.8353H121.688C122.879 16.8353 123.989 17.1212 124.991 17.6929C125.992 18.2647 126.805 19.1496 127.414 20.3338C128.023 21.5318 128.334 23.0157 128.334 24.7446ZM146.302 25.7384C145.702 25.0441 144.542 24.4587 143.179 24.1455C145.061 23.2062 146.029 21.8858 146.029 20.1842C146.029 19.2585 145.784 18.4281 145.292 17.7201C144.802 17.0123 144.106 16.4405 143.219 16.0457C142.332 15.651 141.295 15.4468 140.122 15.4468H132.768V16.4405H133.354C133.6 16.4405 133.818 16.5358 134.037 16.7536C134.241 16.9578 134.35 17.1893 134.35 17.4343V32.0821C134.35 32.3271 134.241 32.5586 134.037 32.7627C133.832 32.9669 133.6 33.0758 133.354 33.0758H132.713V34.0696H140.695C141.909 34.0696 143.041 33.8654 144.065 33.457C145.089 33.0486 145.907 32.4497 146.494 31.6601C147.094 30.8706 147.394 29.9039 147.394 28.7877C147.38 27.5897 147.026 26.5687 146.302 25.7384ZM137.147 32.3407C136.943 32.1365 136.834 31.9051 136.834 31.6601V25.0848H140.627C141.963 25.0848 142.987 25.4252 143.697 26.1058C144.406 26.7866 144.761 27.6714 144.761 28.7605C144.761 29.4139 144.596 30.0537 144.297 30.6391C143.983 31.2381 143.518 31.7146 142.892 32.0821C142.277 32.4497 141.513 32.6403 140.627 32.6403H137.83C137.584 32.6403 137.366 32.545 137.147 32.3407ZM136.847 23.6827V17.8427C136.847 17.5976 136.943 17.3799 137.161 17.162C137.366 16.9578 137.598 16.8489 137.843 16.8489H139.644C140.94 16.8489 141.895 17.1757 142.496 17.8018C143.096 18.4417 143.396 19.2585 143.396 20.2659C143.396 21.3005 143.109 22.1309 142.551 22.757C141.991 23.3696 141.145 23.6827 140.026 23.6827H136.847ZM61.756 21.3446C60.7134 20.7748 59.549 20.4763 58.2898 20.4763C57.0638 20.4763 55.9147 20.7464 54.9052 21.2992L54.8237 21.3446C53.781 21.9143 52.9551 22.7419 52.3459 23.7865C51.7366 24.8312 51.4252 26.0523 51.4252 27.4089C51.4252 28.7655 51.7366 29.9866 52.3459 31.0312C52.9551 32.0759 53.781 32.9034 54.8237 33.4733C55.8663 34.043 57.0307 34.3415 58.2898 34.3415C59.5158 34.3415 60.6649 34.0714 61.6744 33.5187L61.756 33.4733C62.7986 32.9034 63.6245 32.0759 64.2338 31.0312C64.843 29.9866 65.1544 28.7655 65.1544 27.4089C65.1544 26.0523 64.843 24.8312 64.2338 23.7865C63.6245 22.7419 62.7986 21.9143 61.756 21.3446ZM62.7579 27.4089C62.7579 29.0776 62.3518 30.4342 61.5393 31.411C60.7406 32.3878 59.6438 32.8898 58.2898 32.8898C56.9601 32.8898 55.8783 32.4056 55.0834 31.4629L55.0403 31.411C54.2279 30.4342 53.8217 29.0776 53.8217 27.4089C53.8217 25.7705 54.2132 24.433 54.9964 23.4604L55.0403 23.4067C55.8391 22.4299 56.9359 21.9279 58.2898 21.9279C59.6438 21.9279 60.7406 22.4299 61.5393 23.4067C62.3518 24.3836 62.7579 25.7402 62.7579 27.4089ZM109.74 21.3446C108.698 20.7748 107.533 20.4763 106.274 20.4763C105.048 20.4763 103.899 20.7464 102.89 21.2992L102.808 21.3446C101.765 21.9143 100.939 22.7419 100.33 23.7865C99.721 24.8312 99.4096 26.0523 99.4096 27.4089C99.4096 28.7655 99.721 29.9866 100.33 31.0312C100.939 32.0759 101.765 32.9034 102.808 33.4733C103.851 34.043 105.015 34.3415 106.274 34.3415C107.5 34.3415 108.649 34.0714 109.659 33.5187L109.74 33.4733C110.783 32.9034 111.609 32.0759 112.218 31.0312C112.827 29.9866 113.139 28.7655 113.139 27.4089C113.139 26.0523 112.827 24.8312 112.218 23.7865C111.609 22.7419 110.769 21.9143 109.74 21.3446ZM110.742 27.4089C110.742 29.0776 110.336 30.4342 109.524 31.411C108.725 32.3878 107.628 32.8898 106.274 32.8898C104.944 32.8898 103.863 32.4056 103.068 31.4629L103.025 31.411C102.212 30.4342 101.806 29.0776 101.806 27.4089C101.806 25.7572 102.198 24.4325 102.981 23.4604L103.025 23.4067C103.823 22.4299 104.92 21.9279 106.274 21.9279C107.628 21.9279 108.725 22.4299 109.524 23.4067C110.323 24.3836 110.742 25.7402 110.742 27.4089ZM90.389 20.4763C89.298 20.4763 88.3027 20.7079 87.4027 21.1713C86.5027 21.6347 85.7937 22.2618 85.2891 23.0658C84.7847 23.8563 84.5256 24.7423 84.5256 25.6827C84.5256 26.5276 84.7164 27.3045 85.1119 27.9997C85.4937 28.6675 86.0119 29.2262 86.6664 29.6896L84.7164 32.3337C84.4709 32.6608 84.4437 33.0969 84.621 33.4512C84.8118 33.8192 85.1664 34.0374 85.5755 34.0374H86.1346C85.6118 34.39 85.1893 34.8052 84.891 35.295L84.8528 35.3593C84.4982 35.9453 84.321 36.5587 84.321 37.1856C84.321 38.3368 84.8208 39.2908 85.8075 40.0089L85.8618 40.0478C86.871 40.7702 88.289 41.1381 90.0753 41.1381C91.3162 41.1381 92.5025 40.9337 93.5798 40.5384C94.6395 40.1545 95.5061 39.5904 96.1548 38.8589L96.2115 38.794C96.8797 38.0307 97.2206 37.1039 97.2206 36.0408C97.2206 34.9233 96.8115 34.1327 95.8569 33.3696C95.0389 32.7289 93.7571 32.3882 92.1616 32.3882H86.7073C86.6991 32.3882 86.6909 32.3833 86.6857 32.3794L86.68 32.3745L86.6776 32.3688C86.6744 32.3601 86.6703 32.3434 86.68 32.3337L88.0982 30.4256C88.48 30.6028 88.8345 30.7118 89.1481 30.7799C89.4753 30.8481 89.8435 30.8753 90.2526 30.8753C91.3981 30.8753 92.4344 30.6437 93.3343 30.1803C94.2343 29.7169 94.9571 29.09 95.4753 28.2858C95.9933 27.4953 96.2524 26.6095 96.2524 25.6691C96.2524 24.6605 95.7615 22.8205 94.4252 21.8801C94.4252 21.8719 94.4301 21.8687 94.4341 21.8674L94.4389 21.8665L97.3706 22.1935V20.8443H92.6798C91.9434 20.6126 91.1799 20.4763 90.389 20.4763ZM92.0253 29.0081C91.5071 29.2807 90.948 29.4306 90.389 29.4306C89.4754 29.4306 88.6708 29.1036 87.989 28.463C87.3073 27.8224 86.9664 26.882 86.9664 25.6827C86.9664 24.4833 87.3073 23.5428 87.989 22.9023C88.6708 22.2618 89.4754 21.9346 90.389 21.9346C90.9379 21.9346 91.4616 22.0598 91.9604 22.3221L92.0253 22.3571C92.5434 22.6298 92.9662 23.0522 93.3071 23.6111C93.6343 24.1699 93.8116 24.8649 93.8116 25.6827C93.8116 26.514 93.6479 27.2091 93.3071 27.7543C92.9798 28.3131 92.5434 28.7356 92.0253 29.0081ZM88.3299 34.0237H92.0253C93.048 34.0237 93.7025 34.2281 94.1389 34.6643C94.5752 35.1004 94.7934 35.6864 94.7934 36.368C94.7934 37.3629 94.398 38.1806 93.6071 38.794C92.8161 39.4073 91.7526 39.7207 90.4436 39.7207C89.298 39.7207 88.3435 39.4618 87.6481 38.9711C86.9527 38.4805 86.5981 37.7308 86.5981 36.7768C86.5981 36.1771 86.7618 35.6183 87.0891 35.1277C87.4163 34.637 87.8118 34.2826 88.3299 34.0237Z" fill="white"/>
</svg>
