<svg width="89" height="60" viewBox="0 0 89 60" fill="none" xmlns="http://www.w3.org/2000/svg">
<path d="M27.0331 39.6299L29.6938 48.2629C30.2915 50.2229 30.5409 51.5912 30.4411 52.3711C31.8964 48.4739 32.913 44.2267 33.4914 39.6299H36.6907C35.3151 47.1135 33.5007 52.5519 31.2485 55.9445C29.4937 58.5586 27.5714 59.8656 25.4781 59.8656C24.9201 59.8656 24.232 59.6971 23.4154 59.3622V57.5582C23.8143 57.6168 24.2824 57.648 24.8208 57.648C25.7973 57.648 26.5843 57.3774 27.1831 56.8373C27.9001 56.1791 28.259 55.4394 28.259 54.6196C28.259 54.0597 27.9791 52.9107 27.4218 51.1727L23.7146 39.6299H27.0331ZM6.67034 34.3237L11.5438 49.1928H11.5737L16.477 34.3237H20.483C21.3602 41.6976 21.8782 48.4447 22.0374 54.5601H18.6599C18.5411 48.8433 18.2118 43.4676 17.6736 38.432H17.6438L12.5007 54.5601H9.92874L4.81678 38.432H4.78666C4.40736 43.268 4.16873 48.6437 4.06921 54.5601H0.989258C1.18829 47.3648 1.68639 40.6199 2.48357 34.3237H6.67034Z" fill="#00758F"/>
<path d="M61.264 34.0234C66.5061 34.0234 69.1274 37.3726 69.1274 44.0674C69.1274 47.7055 68.339 50.4535 66.764 52.3101C66.48 52.6493 66.1664 52.9423 65.836 53.2139L69.5457 55.0481L69.5421 55.0479L68.2249 57.3225L63.394 54.5037C62.5931 54.7408 61.7121 54.8593 60.7518 54.8593C58.178 54.8593 56.2554 54.1092 54.9841 52.6109C53.5887 50.9532 52.8916 48.3437 52.8916 44.7866C52.8916 41.1692 53.6784 38.4315 55.254 36.5727C56.6889 34.8724 58.6927 34.0234 61.264 34.0234ZM45.2111 34.053C47.0848 34.053 48.7885 34.5544 50.3229 35.5535L49.5435 37.2902C48.2305 36.732 46.9357 36.4518 45.6592 36.4518C44.6234 36.4518 43.8252 36.7012 43.2688 37.2028C42.7092 37.7001 42.3632 38.3401 42.3632 39.12C42.3632 40.3185 43.2172 41.3581 44.7938 42.2363C45.218 42.467 45.7704 42.7745 46.3381 43.0932L46.4557 43.1593C46.4753 43.1704 46.495 43.1814 46.5146 43.1924L46.6325 43.2588C46.6521 43.2698 46.6718 43.2809 46.6914 43.2919L46.809 43.3582C48.0026 44.0311 49.1256 44.6734 49.1256 44.6734C50.7023 45.7925 51.488 46.9856 51.488 48.9509C51.488 50.6671 50.8591 52.076 49.6055 53.1783C48.3509 54.2758 46.6653 54.826 44.5546 54.826C42.5805 54.826 40.6673 54.1927 38.814 52.9365L39.681 51.1982C41.2758 51.9976 42.7191 52.3968 44.0149 52.3968C45.2304 52.3968 46.1818 52.1255 46.8701 51.5896C47.5568 51.0499 47.9684 50.2971 47.9684 49.3423C47.9684 48.1407 47.1327 47.1136 45.5993 46.252C45.2012 46.0329 44.6912 45.7468 44.1638 45.4488L44.0464 45.3823C43.8307 45.2603 43.6132 45.1369 43.4005 45.016L43.2849 44.9503C42.2497 44.3614 41.3545 43.8469 41.3545 43.8469C39.8216 42.7257 39.0531 41.5227 39.0531 39.5406C39.0531 37.9013 39.6262 36.5763 40.7709 35.5682C41.9182 34.5581 43.3985 34.053 45.2111 34.053ZM75.288 34.3237V52.0707H81.6555V54.5601H72.0587V34.3237H75.288ZM85.1938 52.0785V52.4991H84.4935V54.558H83.9584V52.4991H83.2311V52.0785H85.1938ZM86.4864 52.0785L87.1586 53.7686L87.776 52.0785H88.5346V54.558H88.0302V52.6709L87.3274 54.558H86.9637L86.2598 52.6709H86.2327V54.558H85.7554V52.0785H86.4864ZM60.9342 36.5121C57.845 36.5121 56.2997 39.0616 56.2997 44.1572C56.2997 47.076 56.7092 49.1927 57.5267 50.5118C58.2837 51.7328 59.4696 52.342 61.0843 52.342C64.1734 52.342 65.7188 49.7727 65.7188 44.6363C65.7188 41.7583 65.3093 39.6599 64.4928 38.3402C63.7347 37.1219 62.5494 36.5121 60.9342 36.5121Z" fill="#F29111"/>
<path d="M52.8372 1.50442C53.8621 -1.01363 57.4452 0.893189 58.8358 1.77294C59.1766 1.99288 59.5674 2.45783 59.9581 2.6297C60.5677 2.65373 61.1768 2.70127 61.7875 2.72687C62.9327 2.99592 64.0055 3.21585 64.9079 3.72991C69.1022 6.1999 71.8323 8.7169 74.3453 12.8743C74.8819 13.7551 75.1503 14.708 75.589 15.6609C76.1975 17.0813 76.8816 18.5723 77.5881 19.9156C77.9044 20.5523 78.1493 21.2604 78.5885 21.7982C78.7599 22.0441 79.2471 22.1165 79.5383 22.2634C80.3433 22.6801 81.3187 22.9964 82.0758 23.4856C83.4898 24.3671 84.857 25.4177 86.0996 26.4932C86.5628 26.9084 86.8786 27.4962 87.3199 27.9353V28.1569C86.9281 28.2771 86.5378 28.4002 86.1471 28.4987C85.2936 28.7181 84.5376 28.6685 83.7097 28.8879C83.198 29.0362 82.5629 29.2321 82.0263 29.2818C82.0502 29.3059 82.0758 29.3318 82.0758 29.3318C82.3915 30.2337 84.0994 30.9674 84.8804 31.5067C85.8292 32.1914 86.7082 33.0219 87.4158 33.9753C87.6601 34.2188 87.9045 34.4402 88.1478 34.6828C88.3177 34.9287 88.3656 35.2467 88.5375 35.4661V35.5401C88.3471 35.4729 88.2102 35.3448 88.0802 35.2106L88.0028 35.1299C87.9254 35.0493 87.8472 34.9704 87.7581 34.9053C87.2199 34.5376 86.6853 34.0978 86.1471 33.756C85.2217 33.1689 84.1484 32.828 83.198 32.2387C82.6609 31.8965 82.1487 31.5067 81.6365 31.1153C81.1723 30.7721 80.6612 30.1129 80.3694 29.624C80.1975 29.3538 80.174 29.0362 79.9776 28.841C80.0127 28.5145 80.3118 28.4174 80.6135 28.3377L80.683 28.3195C80.7871 28.2924 80.889 28.2654 80.9779 28.2298C82.2456 27.6914 83.7571 27.4962 85.7089 27.5451C85.6354 27.055 84.4157 26.4444 84.0265 26.151C83.2449 25.5877 82.4175 25 81.5886 24.4874C81.1494 24.2188 80.3923 24.0229 79.9057 23.8036C79.2471 23.5344 77.7835 23.2654 77.4188 22.7528C76.7989 21.9447 76.3537 20.9808 75.9214 20.0071L75.8036 19.7414C75.7644 19.6528 75.7252 19.5643 75.6859 19.4759C75.1747 18.3034 74.5401 17.0809 74.0279 15.8804C73.7601 15.2948 73.6372 14.7807 73.3438 14.2192C71.5645 10.7722 68.9307 7.88642 65.7374 5.85683C64.688 5.19649 63.5178 4.58526 62.2261 4.16994C61.4941 3.94896 60.6157 4.07121 59.8357 3.90142H59.3225C58.8843 3.77813 58.5185 3.3137 58.1767 3.06869C57.4218 2.5562 56.6657 2.21193 55.7628 1.84623C55.4465 1.69943 54.5431 1.35778 54.2279 1.62682C54.0325 1.67593 53.9335 1.74959 53.8856 1.9455C53.6912 2.23805 53.8621 2.67845 53.983 2.94802C54.3493 3.72955 54.8609 4.19398 55.3251 4.85431C55.7383 5.43994 56.2515 6.10028 56.5444 6.7371C57.1764 8.10584 57.4707 9.62241 58.0564 10.9911C58.2736 11.5057 58.617 12.0914 58.9333 12.5558C59.2011 12.9241 59.6882 13.1905 59.8357 13.657C60.1295 14.146 59.3959 15.7598 59.2261 16.2723C58.5909 18.2774 58.7139 21.0647 59.4454 22.803C59.4585 22.8333 59.4715 22.8639 59.4844 22.8946L59.5234 22.9874C59.7905 23.624 60.0764 24.3095 60.7866 24.4876C60.8355 24.439 60.7866 24.4645 60.8835 24.439C61.0554 23.0936 61.1039 21.798 61.5676 20.7453C61.8354 20.0872 62.3705 19.6219 62.7373 19.0846C62.9816 19.231 62.9816 19.6723 63.1275 19.9644C63.4448 20.7219 63.7856 21.5524 64.1769 22.3122C64.9798 23.8768 65.8833 25.3936 66.9071 26.7623C67.2499 27.251 67.7365 27.7892 68.1753 28.2296C68.3706 28.4 68.5895 28.4985 68.7364 28.7179H68.7843V28.7918C68.0528 28.522 67.5891 27.7653 67.0055 27.3235C65.9072 26.493 64.5916 25.2457 63.8346 24.0488C63.5178 23.3619 63.1755 22.7034 62.8342 22.0198V21.9704C62.6883 22.1657 62.7373 22.3595 62.6643 22.655C62.3476 23.8768 62.5914 25.2706 61.4941 25.7099C60.2504 26.2246 59.3225 24.8794 58.9333 24.2682C57.689 22.2391 57.3483 18.8163 58.2257 16.0532C58.4206 15.4414 58.4471 14.708 58.7874 14.2195C58.7139 13.7781 58.3737 13.6574 58.1767 13.3868C57.8355 12.9244 57.5432 12.3858 57.2759 11.8723C56.7627 10.8693 56.3974 9.67083 56.0077 8.59518C55.8363 8.15583 55.7873 7.71491 55.6164 7.29906C55.3252 6.66433 54.788 6.0275 54.3738 5.4659C53.8126 4.65877 52.1787 3.09465 52.8372 1.50442ZM60.835 6.29476C60.9001 6.36006 60.9788 6.41718 61.0602 6.47335L61.1584 6.54076C61.2892 6.63127 61.4158 6.72676 61.4936 6.85688C61.6165 7.02875 61.6395 7.19854 61.7869 7.37094C61.7869 7.95866 61.6165 8.34943 61.2727 8.59287C61.2727 8.59287 61.2492 8.61848 61.2253 8.64251C61.0304 8.25069 60.8595 7.86098 60.6631 7.46968C60.4213 7.12802 60.0795 6.85689 59.8826 6.46664H59.8352V6.41754C60.1295 6.34492 60.4213 6.29476 60.835 6.29476Z" fill="#00758F"/>
</svg>
