<svg width="49" height="56" viewBox="0 0 49 56" fill="none" xmlns="http://www.w3.org/2000/svg">
<path d="M24.6021 55.258C23.8524 55.258 23.1527 55.0581 22.503 54.7082L15.856 50.76C14.8564 50.2103 15.3562 50.0103 15.6561 49.9104C17.0055 49.4606 17.2554 49.3606 18.6547 48.561C18.8047 48.461 19.0046 48.511 19.1545 48.611L24.2522 51.6596C24.4521 51.7596 24.702 51.7596 24.8519 51.6596L44.793 40.1148C44.9929 40.0148 45.0928 39.8149 45.0928 39.565V16.5254C45.0928 16.2755 44.9929 16.0756 44.793 15.9756L24.8519 4.48079C24.652 4.38084 24.4021 4.38084 24.2522 4.48079L4.31116 15.9756C4.11125 16.0756 4.0113 16.3255 4.0113 16.5254V39.565C4.0113 39.7649 4.11125 40.0148 4.31116 40.1148L9.75872 43.2634C12.7074 44.7627 14.5566 43.0135 14.5566 41.2643V18.5245C14.5566 18.2246 14.8064 17.9248 15.1563 17.9248H17.7051C18.005 17.9248 18.3049 18.1746 18.3049 18.5245V41.2643C18.3049 45.2125 16.1558 47.5115 12.4075 47.5115C11.258 47.5115 10.3584 47.5115 7.80959 46.262L2.56195 43.2634C1.26253 42.5137 0.462891 41.1143 0.462891 39.615V16.5754C0.462891 15.076 1.26253 13.6767 2.56195 12.927L22.503 1.38219C23.7524 0.682501 25.4517 0.682501 26.7011 1.38219L46.6422 12.927C47.9416 13.6767 48.7412 15.076 48.7412 16.5754V39.615C48.7412 41.1143 47.9416 42.5137 46.6422 43.2634L26.7011 54.8082C26.0514 55.1081 25.3017 55.258 24.6021 55.258ZM30.7493 39.4151C22.0032 39.4151 20.204 35.4169 20.204 32.0184C20.204 31.7186 20.4539 31.4187 20.8038 31.4187H23.4026C23.7025 31.4187 23.9523 31.6186 23.9523 31.9185C24.3522 34.5673 25.5016 35.8667 30.7993 35.8667C34.9974 35.8667 36.7966 34.9171 36.7966 32.6681C36.7966 31.3687 36.2968 30.4191 29.7497 29.7694C24.3022 29.2197 20.9037 28.0202 20.9037 23.6722C20.9037 19.624 24.3022 17.2251 29.9996 17.2251C36.3968 17.2251 39.5453 19.4241 39.9452 24.2219C39.9452 24.3719 39.8952 24.5218 39.7952 24.6717C39.6953 24.7717 39.5453 24.8716 39.3954 24.8716H36.7966C36.5467 24.8716 36.2968 24.6717 36.2468 24.4218C35.6471 21.6731 34.0978 20.7735 29.9996 20.7735C25.4017 20.7735 24.8519 22.3728 24.8519 23.5722C24.8519 25.0216 25.5016 25.4714 31.6989 26.271C37.8461 27.0707 40.7448 28.2201 40.7448 32.5182C40.6948 36.9162 37.0964 39.4151 30.7493 39.4151Z" fill="#539E43"/>
</svg>
