<svg width="62" height="56" viewBox="0 0 62 56" fill="none" xmlns="http://www.w3.org/2000/svg">
<g clip-path="url(#clip0_42_149)">
<path d="M50.5336 18.8292C49.9152 18.6164 49.2744 18.415 48.6146 18.2245C48.723 17.7819 48.8225 17.3451 48.911 16.9156C50.3637 9.86417 49.4139 4.18347 46.1706 2.31315C43.0607 0.519749 37.9746 2.38965 32.838 6.85993C32.344 7.28979 31.8487 7.74491 31.3536 8.22188C31.0237 7.9063 30.6943 7.60134 30.3658 7.30964C24.9824 2.52972 19.5864 0.515399 16.3463 2.39114C13.2393 4.18973 12.3192 9.53013 13.6268 16.2128C13.7531 16.8583 13.9007 17.5175 14.0676 18.1877C13.3039 18.4045 12.5667 18.6356 11.8612 18.8815C5.54981 21.0819 1.51904 24.5305 1.51904 28.1077C1.51904 31.8022 5.84607 35.5078 12.4199 37.7547C12.9387 37.932 13.477 38.0997 14.0318 38.2589C13.8517 38.9837 13.6951 39.694 13.5636 40.3868C12.3168 46.9536 13.2905 52.1678 16.3891 53.955C19.5898 55.8007 24.9614 53.9036 30.192 49.3314C30.6054 48.97 31.0203 48.5867 31.4359 48.185C31.9746 48.7038 32.5125 49.1947 33.0475 49.6553C38.1139 54.0151 43.1179 55.7756 46.2137 53.9834C49.4111 52.1324 50.4503 46.531 49.1012 39.7161C48.9982 39.1956 48.8783 38.6639 48.7436 38.1227C49.1208 38.0112 49.4912 37.8961 49.8523 37.7764C56.6864 35.5121 61.1329 31.8515 61.1329 28.1077C61.1329 24.5176 56.9722 21.0457 50.5336 18.8292ZM49.0513 35.359C48.7253 35.467 48.3909 35.5713 48.0501 35.6724C47.2956 33.2839 46.2774 30.7441 45.0313 28.1201C46.2204 25.5585 47.1992 23.0512 47.9326 20.6782C48.5424 20.8547 49.1343 21.0408 49.7047 21.2372C55.2212 23.1363 58.5862 25.9442 58.5862 28.1077C58.5862 30.4122 54.9521 33.4038 49.0513 35.359ZM46.6029 40.2107C47.1995 43.2242 47.2847 45.9487 46.8895 48.0786C46.5345 49.9924 45.8204 51.2684 44.9376 51.7794C43.0589 52.8669 39.0413 51.4533 34.7084 47.7248C34.2117 47.2974 33.7114 46.841 33.2095 46.358C34.8892 44.5208 36.568 42.3851 38.2065 40.0132C41.0884 39.7575 43.8111 39.3394 46.2802 38.7686C46.4018 39.2592 46.5098 39.7403 46.6029 40.2107ZM21.8428 51.5915C20.0072 52.2397 18.5453 52.2583 17.6616 51.7488C15.7812 50.6642 14.9995 46.4776 16.0658 40.8618C16.1879 40.2186 16.3333 39.558 16.5009 38.8827C18.9429 39.4227 21.6457 39.8113 24.5345 40.0455C26.184 42.3665 27.9113 44.4998 29.652 46.3678C29.2716 46.735 28.8928 47.0845 28.5161 47.4139C26.2032 49.4356 23.8854 50.87 21.8428 51.5915ZM13.2436 35.3449C10.3367 34.3514 7.93616 33.0601 6.29068 31.6511C4.81212 30.3848 4.06562 29.1277 4.06562 28.1077C4.06562 25.9369 7.30193 23.1682 12.6995 21.2863C13.3544 21.0579 14.04 20.8427 14.7515 20.6406C15.4975 23.0671 16.476 25.6042 17.657 28.1696C16.4608 30.7732 15.4683 33.3507 14.715 35.8057C14.2078 35.6599 13.7164 35.5064 13.2436 35.3449ZM16.1261 15.7238C15.0058 9.99819 15.7498 5.67901 17.6222 4.59519C19.6165 3.44058 24.0266 5.0868 28.6748 9.21403C28.9719 9.47782 29.2702 9.75392 29.5693 10.0396C27.8372 11.8994 26.1257 14.0168 24.4909 16.3241C21.6872 16.5839 19.0034 17.0014 16.5359 17.5604C16.3808 16.9363 16.2433 16.3232 16.1261 15.7238ZM41.8408 22.0734C41.2509 21.0545 40.6454 20.0597 40.028 19.0921C41.93 19.3325 43.7524 19.6517 45.4638 20.0423C44.95 21.689 44.3096 23.4106 43.5558 25.1756C43.015 24.149 42.4431 23.1138 41.8408 22.0734ZM31.3544 11.8596C32.5291 13.1322 33.7054 14.553 34.8625 16.0946C33.6965 16.0396 32.5161 16.0109 31.326 16.0109C30.1471 16.0109 28.9754 16.0389 27.8166 16.093C28.9749 14.5658 30.1614 13.1468 31.3544 11.8596ZM20.8008 22.091C20.2116 23.1128 19.6503 24.1423 19.118 25.1737C18.3764 23.4149 17.742 21.6854 17.2237 20.0154C18.9246 19.6347 20.7383 19.3235 22.6283 19.0876C22.0022 20.0642 21.3917 21.0665 20.8008 22.091ZM22.6827 37.3094C20.7301 37.0915 18.889 36.7963 17.1886 36.4262C17.7151 34.7264 18.3636 32.96 19.1209 31.1633C19.6545 32.1939 20.2181 33.2239 20.8109 34.2478C21.4148 35.291 22.0405 36.3129 22.6827 37.3094ZM31.4249 44.5353C30.2178 43.233 29.0139 41.7924 27.8381 40.2428C28.9795 40.2876 30.1432 40.3105 31.326 40.3105C32.5411 40.3105 33.7422 40.2832 34.9245 40.2305C33.7637 41.808 32.5916 43.2508 31.4249 44.5353ZM43.5801 31.0717C44.3769 32.8878 45.0486 34.645 45.5819 36.3158C43.8534 36.7102 41.9872 37.0277 40.021 37.2637C40.6398 36.2831 41.2507 35.2712 41.851 34.2303C42.4583 33.1773 43.0349 32.1226 43.5801 31.0717ZM39.645 32.958C38.7132 34.5738 37.7565 36.1162 36.7852 37.5722C35.0162 37.6987 33.1887 37.7639 31.326 37.7639C29.4708 37.7639 27.6663 37.7062 25.9286 37.5934C24.9182 36.1184 23.9407 34.5714 23.0148 32.9719C22.0913 31.3769 21.2415 29.7683 20.4714 28.1688C21.2413 26.5655 22.089 24.9552 23.0072 23.363L23.007 23.3633C23.9276 21.7668 24.8965 20.2274 25.8976 18.7615C27.6705 18.6275 29.4885 18.5576 31.3259 18.5576C33.1715 18.5576 34.9919 18.6281 36.7643 18.7632C37.7501 20.2184 38.7124 21.7528 39.6367 23.3495C40.5714 24.9641 41.4301 26.5637 42.2066 28.1326C41.4324 29.7284 40.5756 31.3442 39.645 32.958ZM44.8985 4.51942C46.8948 5.67063 47.6711 10.3135 46.4169 16.4016C46.3369 16.7901 46.2468 17.1858 46.149 17.5868C43.6757 17.0161 40.99 16.5915 38.1781 16.3277C36.5401 13.995 34.8426 11.8744 33.1388 10.0384C33.5969 9.59773 34.0543 9.17752 34.5099 8.78098C38.911 4.95087 43.0244 3.43867 44.8985 4.51942ZM31.326 22.7844C34.2659 22.7844 36.6493 25.1676 36.6493 28.1077C36.6493 31.0476 34.2659 33.431 31.326 33.431C28.386 33.431 26.0027 31.0476 26.0027 28.1077C26.0027 25.1676 28.386 22.7844 31.326 22.7844Z" fill="#00D8FF"/>
</g>
<defs>
<clipPath id="clip0_42_149">
<rect x="0.862305" y="0.981445" width="60.927" height="54.3526" rx="0.262632" fill="white"/>
</clipPath>
</defs>
</svg>
