<svg width="73" height="70" viewBox="0 0 73 70" fill="none" xmlns="http://www.w3.org/2000/svg">
<path d="M50.8075 48.7539C53.4715 48.4783 55.4925 46.1817 55.4006 43.4258C55.3087 40.6699 53.0122 38.4651 50.2564 38.4651H50.0727C47.225 38.557 45.0203 40.9455 45.1122 43.7933C45.204 45.1712 45.7552 46.3655 46.5819 47.1922C43.4587 53.3472 38.6819 57.8485 31.5167 61.6149C26.6481 64.1871 21.5957 65.1058 16.5434 64.4627C12.4096 63.9116 9.19449 62.0743 7.17355 59.0427C4.23399 54.5414 3.95841 49.6726 6.43866 44.8038C8.18402 41.3129 10.9399 38.7407 12.6852 37.4546C12.3178 36.2604 11.7666 34.2394 11.491 32.7695C-1.82883 42.4153 -0.45092 55.46 3.59097 61.6149C6.62238 66.2082 12.7771 69.056 19.5748 69.056C21.412 69.056 23.2492 68.8722 25.0865 68.4129C36.8447 66.1163 45.7552 59.1346 50.8075 48.7539ZM66.9751 37.3627C59.9937 29.1868 49.7052 24.6855 37.947 24.6855H36.4772C35.6505 23.0319 33.9051 21.9295 31.976 21.9295H31.7923C28.9446 22.0214 26.74 24.4099 26.8318 27.2577C26.9237 30.0136 29.2202 32.2183 31.976 32.2183H32.1598C34.1807 32.1265 35.9261 30.8404 36.6609 29.0949H38.3144C45.2959 29.0949 51.9099 31.116 57.8809 35.0661C62.4739 38.0977 65.7809 42.0478 67.6181 46.8248C69.1798 50.6831 69.0879 54.4495 67.4344 57.6648C64.8623 62.5336 60.5448 65.1977 54.8494 65.1977C51.175 65.1977 47.6843 64.0953 45.8471 63.2685C44.8366 64.1872 42.9994 65.657 41.7133 66.5756C45.6633 68.4129 49.7052 69.4234 53.5634 69.4234C62.382 69.4234 68.9042 64.5546 71.3844 59.6858C74.0484 54.3577 73.8647 45.1712 66.9751 37.3627ZM20.3097 50.3156C20.4015 53.0716 22.6981 55.2763 25.4539 55.2763H25.6376C28.4853 55.1844 30.69 52.796 30.5981 49.9482C30.5063 47.1922 28.2097 44.9875 25.4539 44.9875H25.2702C25.0865 44.9875 24.8109 44.9875 24.6271 45.0794C20.8608 38.8326 19.2992 32.0346 19.8504 24.6855C20.2178 19.1736 22.055 14.3966 25.2702 10.4465C27.9341 7.04749 33.0784 5.39393 36.5691 5.30207C46.3064 5.11834 50.4401 17.2444 50.7157 22.1133C51.9099 22.3888 53.9308 23.0319 55.3087 23.4912C54.2064 8.60919 45.0203 0.892578 36.2016 0.892578C27.9341 0.892578 20.3097 6.86376 17.2783 15.6827C13.0527 27.4414 15.8085 38.7407 20.9527 47.6516C20.4934 48.2946 20.2178 49.3051 20.3097 50.3156Z" fill="#764ABC"/>
</svg>
