<svg width="72" height="55" viewBox="0 0 72 55" fill="none" xmlns="http://www.w3.org/2000/svg">
<path d="M61.987 31.2852C59.4756 31.2983 57.2929 31.9032 55.4652 32.7973C54.7946 31.4693 54.124 30.2859 54.0057 29.4181C53.8742 28.4056 53.7164 27.7876 53.8742 26.5779C54.032 25.3682 54.742 23.6457 54.7289 23.5142C54.7157 23.3827 54.5711 22.7647 53.1247 22.7516C51.6783 22.7384 50.4292 23.0277 50.2846 23.409C50.1399 23.7904 49.8638 24.6582 49.6797 25.5523C49.4299 26.8672 46.787 31.5613 45.2749 34.0201C44.7883 33.0603 44.3676 32.2188 44.2755 31.5482C44.1441 30.5357 43.9863 29.9177 44.1441 28.708C44.3018 27.4983 45.0119 25.7758 44.9987 25.6443C44.9856 25.5128 44.8409 24.8949 43.3946 24.8817C41.9482 24.8686 40.6991 25.1578 40.5544 25.5391C40.4098 25.9205 40.252 26.8146 39.9496 27.6824C39.6472 28.5502 36.1364 36.3869 35.216 38.4118C34.7426 39.4506 34.335 40.279 34.0458 40.8444C34.0458 40.8444 34.0326 40.8838 33.9932 40.9496C33.7433 41.4361 33.5987 41.6991 33.5987 41.6991C33.5987 41.6991 33.5987 41.6991 33.5987 41.7122C33.4015 42.0672 33.1911 42.3959 33.0859 42.3959C33.007 42.3959 32.8624 41.4492 33.1122 40.1606C33.6381 37.4388 34.8873 33.2049 34.8741 33.0603C34.8741 32.9814 35.1108 32.245 34.0589 31.8637C33.0333 31.4824 32.6651 32.1136 32.5731 32.1136C32.481 32.1136 32.4153 32.3371 32.4153 32.3371C32.4153 32.3371 33.5592 27.5772 30.2326 27.5772C28.1551 27.5772 25.2886 29.852 23.8686 31.9032C22.9744 32.3897 21.0679 33.4284 19.0298 34.5461C18.254 34.98 17.4519 35.4139 16.7025 35.8215C16.6499 35.7689 16.5973 35.7032 16.5447 35.6506C12.5211 31.3509 5.07889 28.3135 5.39447 22.5412C5.5128 20.4374 6.23599 14.9149 19.6872 8.209C30.7585 2.75223 39.5683 4.26435 41.0935 7.6173C43.2762 12.4035 36.3731 21.2921 24.9336 22.5807C20.5682 23.0672 18.2803 21.3841 17.7018 20.753C17.0969 20.0955 17.0049 20.0561 16.7813 20.1876C16.4132 20.3848 16.6499 20.9765 16.7813 21.3184C17.1232 22.2125 18.5301 23.7904 20.9101 24.5661C23.0139 25.2499 28.1288 25.6312 34.3219 23.2381C41.2513 20.5557 46.6686 13.1004 45.0776 6.85467C43.4866 0.516933 32.9675 -1.57373 23.0139 1.9633C17.0969 4.06712 10.6803 7.38062 6.06506 11.6934C0.581995 16.8215 -0.285827 21.2789 0.0691917 23.1461C1.34463 29.7731 10.4831 34.0859 14.1384 37.281C13.9544 37.3862 13.7834 37.4783 13.6388 37.5572C11.8111 38.4644 4.84222 42.1067 3.10657 45.9593C1.13425 50.3247 3.42214 53.4541 4.93426 53.8749C9.62839 55.1766 14.454 52.8361 17.0443 48.9703C19.6346 45.1046 19.3191 40.0817 18.1225 37.7807C18.1094 37.7544 18.0962 37.7281 18.0699 37.7018C18.5433 37.4257 19.0298 37.1364 19.5032 36.8603C20.4367 36.308 21.3571 35.7952 22.1461 35.3745C21.699 36.5973 21.3703 38.0568 21.2125 40.1606C21.0153 42.6326 22.0277 45.8409 23.3558 47.1032C23.9475 47.6555 24.6443 47.6686 25.0914 47.6686C26.643 47.6686 27.3399 46.38 28.1156 44.8548C29.0624 42.9876 29.917 40.8181 29.917 40.8181C29.917 40.8181 28.852 46.6825 31.7447 46.6825C32.7966 46.6825 33.8617 45.315 34.335 44.6181V44.6312C34.335 44.6312 34.3613 44.5918 34.4139 44.4997C34.5191 44.3288 34.5849 44.2236 34.5849 44.2236V44.1973C35.0056 43.461 35.9523 41.7911 37.3593 39.0167C39.1738 35.4402 40.9226 30.9696 40.9226 30.9696C40.9226 30.9696 41.0804 32.061 41.6195 33.8755C41.9351 34.9406 42.5925 36.1108 43.1184 37.2416C42.6977 37.8333 42.4347 38.162 42.4347 38.162C42.4347 38.162 42.4347 38.162 42.4479 38.1752C42.106 38.6222 41.7378 39.1087 41.3302 39.5821C39.897 41.2914 38.1876 43.2506 37.951 43.816C37.6748 44.4866 37.7406 44.9731 38.2665 45.3676C38.6478 45.6568 39.3316 45.6963 40.0285 45.6568C41.3171 45.5648 42.2243 45.2492 42.6714 45.052C43.3683 44.8022 44.1835 44.4209 44.9461 43.8555C46.3531 42.8167 47.2077 41.3309 47.1288 39.3717C47.0894 38.2935 46.7344 37.2153 46.3005 36.2028C46.4319 36.0188 46.5503 35.8347 46.6818 35.6506C48.9039 32.4028 50.6264 28.8395 50.6264 28.8395C50.6264 28.8395 50.7842 29.9309 51.3233 31.7454C51.5863 32.6658 52.1254 33.6651 52.5987 34.6381C50.5081 36.3343 49.2195 38.3067 48.7593 39.5952C47.9309 41.9883 48.5752 43.0665 49.798 43.3164C50.3503 43.4347 51.1392 43.1717 51.7178 42.9219C52.4541 42.6852 53.3219 42.2776 54.1503 41.6728C55.5572 40.634 56.9116 39.1876 56.8327 37.2285C56.7932 36.3343 56.5565 35.4534 56.2278 34.5987C58.0029 33.8624 60.2908 33.4547 63.2099 33.7966C69.4687 34.5329 70.7047 38.4381 70.468 40.0817C70.2313 41.7253 68.9164 42.6195 68.4825 42.8956C68.0486 43.1717 67.904 43.2638 67.9434 43.461C67.996 43.7503 68.2064 43.7371 68.5746 43.6845C69.0874 43.5925 71.8618 42.3565 71.9801 39.3323C72.1773 35.4665 68.4957 31.2457 61.987 31.2852ZM13.7045 47.5634C11.627 49.825 8.73427 50.6797 7.48513 49.9565C6.14395 49.1807 6.6699 45.8409 9.22077 43.4478C10.7723 41.9883 12.771 40.634 14.099 39.8056C14.4014 39.6215 14.8485 39.3586 15.3876 39.0298C15.4796 38.9772 15.5322 38.9509 15.5322 38.9509C15.6374 38.8852 15.7426 38.8195 15.8478 38.7537C16.7813 42.1724 15.8872 45.1835 13.7045 47.5634ZM28.8257 37.281C28.1025 39.043 26.5904 43.553 25.67 43.3032C24.881 43.0928 24.3945 39.6741 25.5122 36.2949C26.0776 34.5987 27.2741 32.5738 27.971 31.7848C29.1018 30.5226 30.3509 30.1018 30.6534 30.6146C31.0347 31.2852 29.2727 36.1765 28.8257 37.281ZM41.3039 43.2506C41.0015 43.4084 40.7122 43.5136 40.5807 43.4347C40.4887 43.3821 40.7122 43.1717 40.7122 43.1717C40.7122 43.1717 42.2769 41.4887 42.8949 40.726C43.2499 40.279 43.6707 39.753 44.1178 39.1613V39.3323C44.1178 41.344 42.1717 42.6984 41.3039 43.2506ZM50.9289 41.0548C50.7053 40.897 50.7448 40.371 51.4942 38.7274C51.7835 38.0831 52.4673 37.0049 53.6375 35.9662C53.769 36.3869 53.861 36.7945 53.8479 37.1759C53.8347 39.7136 52.0202 40.6603 50.9289 41.0548Z" fill="#CD6799"/>
</svg>
