<svg width="59" height="61" viewBox="0 0 59 61" fill="none" xmlns="http://www.w3.org/2000/svg">
<g clip-path="url(#clip0_57_167)">
<path d="M-2.31567 29.8329V-0.166992H57.6843V59.8328H-2.31567" fill="#007ACC"/>
<path d="M10.0276 27.9807V30.5544H18.2382V53.923H24.0646V30.5544H32.2752V28.0281C32.2752 26.607 32.2752 25.4544 32.212 25.4228C32.212 25.3754 27.2067 25.3596 21.1277 25.3596L10.075 25.407V27.9965L10.0276 27.9807ZM46.9279 25.3438C48.5385 25.7228 49.77 26.4491 50.8753 27.6018C51.4595 28.2333 52.328 29.3386 52.3911 29.6228C52.3911 29.7176 49.6595 31.5649 48.0016 32.5913C47.9384 32.6386 47.6858 32.3702 47.4332 31.9597C46.6121 30.7913 45.7753 30.286 44.4647 30.1912C42.57 30.0649 41.3068 31.0597 41.3068 32.7176C41.3068 33.2229 41.4015 33.5071 41.591 33.9176C42.0173 34.786 42.8068 35.3071 45.2542 36.3808C49.77 38.3229 51.7279 39.6019 52.9122 41.4334C54.2543 43.4861 54.5543 46.7072 53.6543 49.123C52.6437 51.7599 50.1806 53.5441 46.6595 54.1283C45.5542 54.3178 43.0279 54.2862 41.8437 54.0809C39.3173 53.6072 36.9015 52.3441 35.4173 50.7177C34.8331 50.0862 33.712 48.3967 33.7752 48.2861L34.3752 47.9072L36.7436 46.5335L38.5278 45.4914L38.9384 46.044C39.4594 46.8651 40.6279 47.9704 41.3068 48.3493C43.3595 49.4072 46.1068 49.2651 47.4648 48.0335C48.049 47.4967 48.3016 46.9282 48.3016 46.1388C48.3016 45.4124 48.1911 45.0809 47.8279 44.5282C47.3227 43.8335 46.3121 43.265 43.47 42.0019C40.2015 40.6124 38.812 39.7282 37.5173 38.3703C36.7752 37.5492 36.0962 36.2702 35.7804 35.2123C35.5436 34.2965 35.4647 32.0544 35.6857 31.1544C36.3647 27.9965 38.7489 25.7859 42.1594 25.1544C43.2647 24.9333 45.87 25.028 46.9595 25.3123L46.9279 25.3438Z" fill="white"/>
</g>
<defs>
<clipPath id="clip0_57_167">
<rect width="58" height="60" fill="white" transform="translate(0.0275879 0.0322266)"/>
</clipPath>
</defs>
</svg>
